<svg width="24" height="24" viewBox="0 0 24 24" fill="none" xmlns="http://www.w3.org/2000/svg">
<path d="M13.0898 15.4138L14.5515 5.48275L11.7584 3L8.96533 5.48275L10.4271 15.4138H13.0898Z" fill="#6C737F"/>
<path d="M8.30137 5.24069L8.49689 5.06689L6.17241 3L4 5.48275L8.38206 15.4138H9.79723L8.30137 5.24069Z" fill="#6C737F"/>
<path d="M11.7587 20.9999C12.5818 20.9999 13.3712 20.673 13.9532 20.091C14.5352 19.5089 14.8622 18.7196 14.8622 17.8965H8.65527C8.65527 18.7196 8.98224 19.5089 9.56425 20.091C10.1463 20.673 10.9356 20.9999 11.7587 20.9999Z" fill="#6C737F"/>
<path d="M17.345 3L15.0206 5.06689L15.2161 5.24069L13.7202 15.4138H15.1354L19.5174 5.48275L17.345 3Z" fill="#6C737F"/>
<path d="M8.65527 16.0344H14.8622V17.2758H8.65527V16.0344Z" fill="#6C737F"/>
</svg>
