<svg width="24" height="24" viewBox="0 0 24 24" fill="none" xmlns="http://www.w3.org/2000/svg">
<path d="M13.2742 3.53554C13.4892 3.25057 13.4547 2.64615 13.424 2.11297C13.4229 2.08998 13.4216 2.06751 13.4203 2.04468C13.1189 2.0159 12.8139 2 12.5051 2C11.322 2 10.1899 2.21796 9.14502 2.6131C9.89037 2.97128 11.0441 3.5878 12.3265 4.49873C12.7641 4.12219 13.0941 3.77458 13.2742 3.53554Z" fill="#6C737F"/>
<path d="M18.0896 8.95895C17.6212 9.01188 17.2261 9.08876 16.8882 9.19659C18.5034 12.0168 19.1332 15.5797 19.2873 18.1609C20.8875 16.5305 21.9038 14.3263 21.9999 11.8848C20.8973 10.5295 19.4366 8.80616 18.0896 8.95895Z" fill="#6C737F"/>
<path d="M8.48758 6.52488C9.6225 6.28872 10.6888 5.7175 11.5389 5.11456C9.76534 3.89303 8.28607 3.25909 7.99181 3.13843C6.15178 4.13312 4.67936 5.71797 3.82275 7.63826C4.93617 7.19463 6.14202 6.96893 7.32641 6.74902C7.70957 6.67786 8.10563 6.60432 8.48758 6.52488Z" fill="#6C737F"/>
<path d="M15.0566 6.80126C15.1579 6.90306 15.259 7.00662 15.3593 7.11212C15.7295 7.5008 16.0655 7.92591 16.3736 8.37568C16.8222 8.20629 17.3504 8.08617 17.9826 8.01469C19.4722 7.84619 20.7968 9.02623 21.9337 10.3254C21.6899 8.35593 20.8453 6.57346 19.5867 5.16772C18.8997 5.25052 18.1338 5.39078 17.3532 5.62372C16.8411 5.77666 16.0256 6.19221 15.0566 6.80126Z" fill="#6C737F"/>
<path d="M13.8062 11.7095C14.196 10.3891 14.6476 9.43727 15.5225 8.81944C15.2599 8.4425 14.9774 8.08874 14.6713 7.76738C14.5297 7.61868 14.3865 7.47507 14.2427 7.33398C10.7326 9.72317 5.92451 14.112 5.4873 17.9146C6.94674 19.5114 8.94406 20.6065 11.1925 20.9172C12.0112 19.2872 12.7818 15.9737 13.2398 14.003C13.4598 13.0564 13.6498 12.2391 13.8062 11.7095Z" fill="#6C737F"/>
<path d="M9.82645 9.61578C11.0503 8.48801 12.3428 7.47671 13.5249 6.66393C13.1308 6.31531 12.7356 5.99394 12.3476 5.69922C11.3657 6.4373 10.0802 7.16425 8.68087 7.45529C8.289 7.53683 7.88773 7.61138 7.49979 7.6834C6.00504 7.96097 4.57019 8.2298 3.36352 8.90305C3.12852 9.73022 3 10.6023 3 11.5048C3 13.5237 3.63145 15.3943 4.70477 16.9336C5.40012 14.1805 7.78514 11.4968 9.82645 9.61578Z" fill="#6C737F"/>
<path d="M14.3437 6.12094C15.4745 5.40005 16.4493 4.90159 17.0818 4.7128C17.6498 4.54317 18.207 4.41963 18.7346 4.32952C17.5154 3.27004 16.025 2.51493 14.3798 2.18579C14.4163 2.8496 14.4322 3.57838 14.0328 4.10787C13.8431 4.35931 13.5221 4.70416 13.1045 5.0783C13.5135 5.39667 13.9292 5.74385 14.3437 6.12094Z" fill="#6C737F"/>
<path d="M14.7178 11.9789C14.5694 12.4817 14.3822 13.2865 14.1656 14.2184C13.5262 16.9698 12.9143 19.4318 12.1997 21.0019C12.3012 21.0051 12.4026 21.0097 12.5048 21.0097C14.7199 21.0097 16.7563 20.2498 18.3723 18.9795C18.3085 16.2784 17.6609 12.4577 16.0298 9.62158C15.3972 10.0918 15.0567 10.8314 14.7178 11.9789Z" fill="#6C737F"/>
</svg>
