<svg width="24" height="24" viewBox="0 0 24 24" fill="none" xmlns="http://www.w3.org/2000/svg">
<path d="M11.9985 1.95312C9.78954 1.95312 7.99854 3.74292 7.99854 5.95072C7.99854 7.22622 8.58653 8.35143 9.51753 9.08343L3.55254 12.0641C3.22654 12.2681 2.99854 12.5511 2.99854 12.9471V16.9441C2.99854 17.3231 3.22253 17.6811 3.56053 17.8501L11.5605 21.8471C11.8425 21.9881 12.1545 21.9881 12.4365 21.8471L20.4365 17.8501C20.7745 17.6811 20.9985 17.3231 20.9985 16.9441V12.9471C20.9985 12.5511 20.7455 12.2201 20.4525 12.0741L14.4715 9.08233C15.4025 8.35033 15.9985 7.22622 15.9985 5.95072C15.9985 3.74292 14.2075 1.95312 11.9985 1.95312ZM9.99854 11.0731V11.9471C9.99854 13.0511 10.8935 13.9461 11.9985 13.9461C13.1035 13.9461 13.9985 13.0511 13.9985 11.9471V11.0731L17.7755 12.9461C15.8615 13.9031 13.0795 15.2901 11.9895 15.8351L6.22253 12.9611L9.99854 11.0731Z" fill="#E5E7EB"/>
</svg>
