<svg width="21" height="20" viewBox="0 0 21 20" fill="none" xmlns="http://www.w3.org/2000/svg">
<path d="M7.07145 1.67822C6.61145 1.67822 6.23812 2.05156 6.23812 2.51156C4.39728 2.51156 2.90479 4.00406 2.90479 5.84489V14.1782C2.90479 16.0191 4.39728 17.5116 6.23812 17.5116H14.5714C16.4123 17.5116 17.9048 16.0191 17.9048 14.1782V5.84489C17.9048 4.00406 16.4123 2.51156 14.5714 2.51156C14.5714 2.05156 14.1981 1.67822 13.7381 1.67822C13.2781 1.67822 12.9048 2.05156 12.9048 2.51156H7.90478C7.90478 2.05156 7.53145 1.67822 7.07145 1.67822ZM6.23812 4.17822C6.23812 4.63822 6.61145 5.01156 7.07145 5.01156C7.53145 5.01156 7.90478 4.63822 7.90478 4.17822H12.9048C12.9048 4.63822 13.2781 5.01156 13.7381 5.01156C14.1981 5.01156 14.5714 4.63822 14.5714 4.17822C15.4923 4.17822 16.2381 4.92406 16.2381 5.84489V14.1782C16.2381 15.0991 15.4923 15.8449 14.5714 15.8449H6.23812C5.31728 15.8449 4.57145 15.0991 4.57145 14.1782V5.84489C4.57145 4.92406 5.31728 4.17822 6.23812 4.17822ZM12.9048 8.34489C12.6914 8.34489 12.4948 8.41656 12.3315 8.57906L10.4306 10.5066L9.33728 9.41239C9.01144 9.08739 8.49062 9.08739 8.16479 9.41239C7.83979 9.73823 7.83979 10.2849 8.16479 10.6107L9.83146 12.2774C10.1573 12.6024 10.6781 12.6024 11.0039 12.2774L13.5039 9.77738C13.8289 9.45155 13.8289 8.90489 13.5039 8.57906C13.3406 8.41656 13.1181 8.34489 12.9048 8.34489Z" fill="white"/>
</svg>
