<svg width="24" height="24" viewBox="0 0 24 24" fill="none" xmlns="http://www.w3.org/2000/svg">
<path d="M8.00586 2.01416C7.45356 2.01416 7.00586 2.46216 7.00586 3.01416C4.79576 3.01416 3.00586 4.80616 3.00586 7.01416V9.01416V17.0142C3.00586 19.2222 4.79676 21.0142 7.00586 21.0142H17.0059C19.2149 21.0142 21.0059 19.2232 21.0059 17.0142V9.01416V7.01416C21.0059 4.80916 19.2139 3.01416 17.0059 3.01416C17.0059 2.46216 16.5579 2.01416 16.0059 2.01416C15.4539 2.01416 15.0059 2.46216 15.0059 3.01416H9.00586C9.00586 2.46216 8.55816 2.01416 8.00586 2.01416ZM7.00586 5.01416C7.00586 5.56616 7.45356 6.01416 8.00586 6.01416C8.55816 6.01416 9.00586 5.56616 9.00586 5.01416H15.0059C15.0059 5.56616 15.4539 6.01416 16.0059 6.01416C16.5579 6.01416 17.0059 5.56616 17.0059 5.01416C18.1069 5.01416 19.0059 5.90616 19.0059 7.01416V8.01416C17.0799 8.01416 6.93146 8.01416 5.00586 8.01416V7.01416C5.00586 5.91216 5.89826 5.01416 7.00586 5.01416ZM5.00586 10.0142C6.93036 10.0142 17.0809 10.0142 19.0059 10.0142V17.0142C19.0059 18.1172 18.1109 19.0142 17.0059 19.0142H7.00586C5.90126 19.0142 5.00586 18.1192 5.00586 17.0142V10.0142ZM8.00586 12.0142C7.45356 12.0142 7.00586 12.4622 7.00586 13.0142C7.00586 13.5662 7.45356 14.0142 8.00586 14.0142C8.55816 14.0142 9.00586 13.5662 9.00586 13.0142C9.00586 12.4622 8.55816 12.0142 8.00586 12.0142ZM12.0059 12.0142C11.4539 12.0142 11.0059 12.4622 11.0059 13.0142C11.0059 13.5662 11.4539 14.0142 12.0059 14.0142C12.5579 14.0142 13.0059 13.5662 13.0059 13.0142C13.0059 12.4622 12.5579 12.0142 12.0059 12.0142ZM16.0059 12.0142C15.4539 12.0142 15.0059 12.4622 15.0059 13.0142C15.0059 13.5662 15.4539 14.0142 16.0059 14.0142C16.5579 14.0142 17.0059 13.5662 17.0059 13.0142C17.0059 12.4622 16.5579 12.0142 16.0059 12.0142ZM8.00586 15.0142C7.45356 15.0142 7.00586 15.4622 7.00586 16.0142C7.00586 16.5662 7.45356 17.0142 8.00586 17.0142C8.55816 17.0142 9.00586 16.5662 9.00586 16.0142C9.00586 15.4622 8.55816 15.0142 8.00586 15.0142ZM12.0059 15.0142C11.4539 15.0142 11.0059 15.4622 11.0059 16.0142C11.0059 16.5662 11.4539 17.0142 12.0059 17.0142C12.5579 17.0142 13.0059 16.5662 13.0059 16.0142C13.0059 15.4622 12.5579 15.0142 12.0059 15.0142ZM16.0059 15.0142C15.4539 15.0142 15.0059 15.4622 15.0059 16.0142C15.0059 16.5662 15.4539 17.0142 16.0059 17.0142C16.5579 17.0142 17.0059 16.5662 17.0059 16.0142C17.0059 15.4622 16.5579 15.0142 16.0059 15.0142Z" fill="#6C737F"/>
</svg>
