<svg width="24" height="24" viewBox="0 0 24 24" fill="none" xmlns="http://www.w3.org/2000/svg">
<path d="M12.4345 2.15637L6.99712 3.96898C6.43132 4.15748 6.02832 4.71638 6.02832 5.31268V20.0002H5.02832C4.47602 20.0002 4.02832 20.4482 4.02832 21.0002C4.02832 21.5522 4.47602 22.0002 5.02832 22.0002H7.02832H13.0283H17.0283H19.0283C19.5806 22.0002 20.0283 21.5522 20.0283 21.0002C20.0283 20.4482 19.5806 20.0002 19.0283 20.0002H18.0283V6.00018C18.0283 4.34328 16.6852 3.00018 15.0283 3.00018L13.9946 3.00417C13.8685 2.55077 13.5373 2.23477 13.1355 2.12907C12.9157 2.07127 12.6747 2.07637 12.4345 2.15637ZM14.0283 5.00018H15.0283C15.5806 5.00018 16.0283 5.44788 16.0283 6.00018V20.0002H14.0283C14.0283 18.2042 14.0283 7.81548 14.0283 5.00018ZM11.0283 10.0002C11.5806 10.0002 12.0283 10.4482 12.0283 11.0002V12.0002C12.0283 12.5522 11.5806 13.0002 11.0283 13.0002C10.476 13.0002 10.0283 12.5522 10.0283 12.0002V11.0002C10.0283 10.4482 10.476 10.0002 11.0283 10.0002Z" fill="#15B79E"/>
</svg>
