<svg width="25" height="24" viewBox="0 0 25 24" fill="none" xmlns="http://www.w3.org/2000/svg">
<g clip-path="url(#clip0_2595_3612)">
<path d="M23.5 11.5C23.5 5.14872 18.3513 0 12 0C5.64872 0 0.5 5.14872 0.5 11.5C0.5 17.24 4.70538 21.9976 10.2031 22.8603V14.8242H7.2832V11.5H10.2031V8.96641C10.2031 6.08422 11.92 4.49219 14.5468 4.49219C15.805 4.49219 17.1211 4.7168 17.1211 4.7168V7.54688H15.671C14.2424 7.54688 13.7969 8.43334 13.7969 9.34278V11.5H16.9863L16.4765 14.8242H13.7969V22.8603C19.2946 21.9976 23.5 17.24 23.5 11.5Z" fill="#1877F2"/>
</g>
<defs>
<clipPath id="clip0_2595_3612">
<rect x="0.5" width="24" height="24" rx="12" fill="white"/>
</clipPath>
</defs>
</svg>
