<svg width="204" height="42" viewBox="0 0 204 42" fill="none" xmlns="http://www.w3.org/2000/svg">
<rect x="0.5" y="1.5" width="39" height="39" rx="7.5" stroke="#E5E7EB"/>
<g clip-path="url(#clip0_2656_8635)">
<path opacity="0.16" d="M15.3745 20.0828C15.8106 18.4092 17.4831 16.6888 19.1102 16.2403L29.2544 13.4441C30.8815 12.9956 31.847 13.9888 31.411 15.6624L28.6924 26.0964C28.2564 27.77 26.5839 29.4903 24.9568 29.9388L14.8126 32.735C13.1855 33.1835 12.2199 32.1903 12.656 30.5167L15.3745 20.0828Z" fill="white"/>
<path d="M11.3076 15.8996C11.7437 14.226 13.4162 12.5057 15.0433 12.0572L25.1875 9.26103C26.8146 8.81252 27.7801 9.80566 27.3441 11.4793L24.6255 21.9133C24.1895 23.5869 22.517 25.3072 20.8899 25.7557L10.7457 28.5519C9.11859 29.0004 8.15304 28.0072 8.58909 26.3336L11.3076 15.8996Z" fill="white"/>
</g>
<path d="M56.288 12.312V10.242H62.57V12.312H56.288ZM57.296 18V4.59H61.67C63.086 4.59 64.316 4.878 65.36 5.454C66.416 6.018 67.232 6.804 67.808 7.812C68.384 8.808 68.672 9.966 68.672 11.286C68.672 12.594 68.384 13.758 67.808 14.778C67.232 15.786 66.416 16.578 65.36 17.154C64.316 17.718 63.086 18 61.67 18H57.296ZM59.744 15.84H61.724C62.636 15.84 63.422 15.654 64.082 15.282C64.754 14.898 65.276 14.37 65.648 13.698C66.02 13.014 66.206 12.21 66.206 11.286C66.206 10.35 66.02 9.546 65.648 8.874C65.276 8.202 64.754 7.68 64.082 7.308C63.422 6.936 62.636 6.75 61.724 6.75H59.744V15.84ZM73.3571 18.216C72.6731 18.216 72.0791 18.102 71.5751 17.874C71.0711 17.646 70.6811 17.322 70.4051 16.902C70.1291 16.47 69.9911 15.972 69.9911 15.408C69.9911 14.868 70.1111 14.388 70.3511 13.968C70.5911 13.536 70.9631 13.176 71.4671 12.888C71.9711 12.6 72.6071 12.396 73.3751 12.276L76.5791 11.754V13.554L73.8251 14.022C73.3571 14.106 73.0091 14.256 72.7811 14.472C72.5531 14.688 72.4391 14.97 72.4391 15.318C72.4391 15.654 72.5651 15.924 72.8171 16.128C73.0811 16.32 73.4051 16.416 73.7891 16.416C74.2811 16.416 74.7131 16.314 75.0851 16.11C75.4691 15.894 75.7631 15.6 75.9671 15.228C76.1831 14.856 76.2911 14.448 76.2911 14.004V11.484C76.2911 11.064 76.1231 10.716 75.7871 10.44C75.4631 10.152 75.0311 10.008 74.4911 10.008C73.9871 10.008 73.5371 10.146 73.1411 10.422C72.7571 10.686 72.4751 11.04 72.2951 11.484L70.3691 10.548C70.5611 10.032 70.8611 9.588 71.2691 9.216C71.6891 8.832 72.1811 8.532 72.7451 8.316C73.3091 8.1 73.9211 7.992 74.5811 7.992C75.3851 7.992 76.0931 8.142 76.7051 8.442C77.3171 8.73 77.7911 9.138 78.1271 9.666C78.4751 10.182 78.6491 10.788 78.6491 11.484V18H76.4171V16.326L76.9211 16.29C76.6691 16.71 76.3691 17.064 76.0211 17.352C75.6731 17.628 75.2771 17.844 74.8331 18C74.3891 18.144 73.8971 18.216 73.3571 18.216ZM73.2851 22.086V19.62H75.7511V22.086H73.2851ZM74.5991 6.408C73.7831 6.408 73.1111 6.264 72.5831 5.976C72.0551 5.688 71.6591 5.322 71.3951 4.878C71.1431 4.422 71.0111 3.942 70.9991 3.438H73.3211C73.3331 3.798 73.4531 4.08 73.6811 4.284C73.9091 4.488 74.2151 4.59 74.5991 4.59C75.0071 4.59 75.3191 4.488 75.5351 4.284C75.7631 4.08 75.8891 3.798 75.9131 3.438H78.2171C78.2051 3.954 78.0671 4.44 77.8031 4.896C77.5511 5.352 77.1611 5.718 76.6331 5.994C76.1051 6.27 75.4271 6.408 74.5991 6.408ZM85.1167 18.108C84.0127 18.108 83.1547 17.808 82.5427 17.208C81.9427 16.596 81.6427 15.738 81.6427 14.634V10.314H79.9507V8.208H80.1307C80.6107 8.208 80.9827 8.082 81.2467 7.83C81.5107 7.578 81.6427 7.212 81.6427 6.732V5.976H84.0007V8.208H86.2507V10.314H84.0007V14.508C84.0007 14.832 84.0547 15.108 84.1627 15.336C84.2827 15.564 84.4627 15.738 84.7027 15.858C84.9547 15.978 85.2727 16.038 85.6567 16.038C85.7407 16.038 85.8367 16.032 85.9447 16.02C86.0647 16.008 86.1787 15.996 86.2867 15.984V18C86.1187 18.024 85.9267 18.048 85.7107 18.072C85.4947 18.096 85.2967 18.108 85.1167 18.108ZM95.0135 18.216C93.9695 18.216 93.0575 17.97 92.2775 17.478C91.5095 16.974 90.9815 16.296 90.6935 15.444L92.4575 14.598C92.7095 15.15 93.0575 15.582 93.5015 15.894C93.9575 16.206 94.4615 16.362 95.0135 16.362C95.4455 16.362 95.7875 16.266 96.0395 16.074C96.2915 15.882 96.4175 15.63 96.4175 15.318C96.4175 15.126 96.3635 14.97 96.2555 14.85C96.1595 14.718 96.0215 14.61 95.8415 14.526C95.6735 14.43 95.4875 14.352 95.2835 14.292L93.6815 13.842C92.8535 13.602 92.2235 13.236 91.7915 12.744C91.3715 12.252 91.1615 11.67 91.1615 10.998C91.1615 10.398 91.3115 9.876 91.6115 9.432C91.9235 8.976 92.3495 8.622 92.8895 8.37C93.4415 8.118 94.0715 7.992 94.7795 7.992C95.7035 7.992 96.5195 8.214 97.2275 8.658C97.9355 9.102 98.4395 9.726 98.7395 10.53L96.9395 11.376C96.7715 10.932 96.4895 10.578 96.0935 10.314C95.6975 10.05 95.2535 9.918 94.7615 9.918C94.3655 9.918 94.0535 10.008 93.8255 10.188C93.5975 10.368 93.4835 10.602 93.4835 10.89C93.4835 11.07 93.5315 11.226 93.6275 11.358C93.7235 11.49 93.8555 11.598 94.0235 11.682C94.2035 11.766 94.4075 11.844 94.6355 11.916L96.2015 12.384C97.0055 12.624 97.6235 12.984 98.0555 13.464C98.4995 13.944 98.7215 14.532 98.7215 15.228C98.7215 15.816 98.5655 16.338 98.2535 16.794C97.9415 17.238 97.5095 17.586 96.9575 17.838C96.4055 18.09 95.7575 18.216 95.0135 18.216ZM103.504 18.216C102.82 18.216 102.226 18.102 101.722 17.874C101.218 17.646 100.828 17.322 100.552 16.902C100.276 16.47 100.138 15.972 100.138 15.408C100.138 14.868 100.258 14.388 100.498 13.968C100.738 13.536 101.11 13.176 101.614 12.888C102.118 12.6 102.754 12.396 103.522 12.276L106.726 11.754V13.554L103.972 14.022C103.504 14.106 103.156 14.256 102.928 14.472C102.7 14.688 102.586 14.97 102.586 15.318C102.586 15.654 102.712 15.924 102.964 16.128C103.228 16.32 103.552 16.416 103.936 16.416C104.428 16.416 104.86 16.314 105.232 16.11C105.616 15.894 105.91 15.6 106.114 15.228C106.33 14.856 106.438 14.448 106.438 14.004V11.484C106.438 11.064 106.27 10.716 105.934 10.44C105.61 10.152 105.178 10.008 104.638 10.008C104.134 10.008 103.684 10.146 103.288 10.422C102.904 10.686 102.622 11.04 102.442 11.484L100.516 10.548C100.708 10.032 101.008 9.588 101.416 9.216C101.836 8.832 102.328 8.532 102.892 8.316C103.456 8.1 104.068 7.992 104.728 7.992C105.532 7.992 106.24 8.142 106.852 8.442C107.464 8.73 107.938 9.138 108.274 9.666C108.622 10.182 108.796 10.788 108.796 11.484V18H106.564V16.326L107.068 16.29C106.816 16.71 106.516 17.064 106.168 17.352C105.82 17.628 105.424 17.844 104.98 18C104.536 18.144 104.044 18.216 103.504 18.216ZM101.236 6.48L103.342 3.51H106.132L108.256 6.48H105.916L104.746 4.86L103.576 6.48H101.236ZM110.975 18V8.208H113.189V10.134L113.009 9.792C113.237 9.204 113.609 8.76 114.125 8.46C114.653 8.148 115.265 7.992 115.961 7.992C116.681 7.992 117.317 8.148 117.869 8.46C118.433 8.772 118.871 9.21 119.183 9.774C119.495 10.326 119.651 10.968 119.651 11.7V18H117.293V12.258C117.293 11.826 117.209 11.454 117.041 11.142C116.873 10.83 116.639 10.59 116.339 10.422C116.051 10.242 115.709 10.152 115.313 10.152C114.929 10.152 114.587 10.242 114.287 10.422C113.987 10.59 113.753 10.83 113.585 11.142C113.417 11.454 113.333 11.826 113.333 12.258V18H110.975ZM129.632 18.216C128.672 18.216 127.796 17.994 127.004 17.55C126.224 17.106 125.6 16.5 125.132 15.732C124.676 14.964 124.448 14.088 124.448 13.104C124.448 12.12 124.676 11.244 125.132 10.476C125.6 9.708 126.224 9.102 127.004 8.658C127.784 8.214 128.66 7.992 129.632 7.992C130.592 7.992 131.462 8.214 132.242 8.658C133.022 9.102 133.64 9.708 134.096 10.476C134.564 11.232 134.798 12.108 134.798 13.104C134.798 14.088 134.564 14.964 134.096 15.732C133.628 16.5 133.004 17.106 132.224 17.55C131.444 17.994 130.58 18.216 129.632 18.216ZM129.632 16.056C130.16 16.056 130.622 15.93 131.018 15.678C131.426 15.426 131.744 15.078 131.972 14.634C132.212 14.178 132.332 13.668 132.332 13.104C132.332 12.528 132.212 12.024 131.972 11.592C131.744 11.148 131.426 10.8 131.018 10.548C130.622 10.284 130.16 10.152 129.632 10.152C129.092 10.152 128.618 10.284 128.21 10.548C127.802 10.8 127.478 11.148 127.238 11.592C127.01 12.024 126.896 12.528 126.896 13.104C126.896 13.668 127.01 14.178 127.238 14.634C127.478 15.078 127.802 15.426 128.21 15.678C128.618 15.93 129.092 16.056 129.632 16.056ZM136.586 18V8.208H138.8V10.134L138.62 9.792C138.848 9.204 139.22 8.76 139.736 8.46C140.264 8.148 140.876 7.992 141.572 7.992C142.292 7.992 142.928 8.148 143.48 8.46C144.044 8.772 144.482 9.21 144.794 9.774C145.106 10.326 145.262 10.968 145.262 11.7V18H142.904V12.258C142.904 11.826 142.82 11.454 142.652 11.142C142.484 10.83 142.25 10.59 141.95 10.422C141.662 10.242 141.32 10.152 140.924 10.152C140.54 10.152 140.198 10.242 139.898 10.422C139.598 10.59 139.364 10.83 139.196 11.142C139.028 11.454 138.944 11.826 138.944 12.258V18H136.586ZM147.256 18V4.374H149.614V18H147.256ZM151.791 18V8.208H154.149V18H151.791ZM151.791 7.11V4.59H154.149V7.11H151.791ZM156.327 18V8.208H158.541V10.134L158.361 9.792C158.589 9.204 158.961 8.76 159.477 8.46C160.005 8.148 160.617 7.992 161.313 7.992C162.033 7.992 162.669 8.148 163.221 8.46C163.785 8.772 164.223 9.21 164.535 9.774C164.847 10.326 165.003 10.968 165.003 11.7V18H162.645V12.258C162.645 11.826 162.561 11.454 162.393 11.142C162.225 10.83 161.991 10.59 161.691 10.422C161.403 10.242 161.061 10.152 160.665 10.152C160.281 10.152 159.939 10.242 159.639 10.422C159.339 10.59 159.105 10.83 158.937 11.142C158.769 11.454 158.685 11.826 158.685 12.258V18H156.327ZM171.64 18.216C170.632 18.216 169.75 17.988 168.994 17.532C168.238 17.076 167.65 16.458 167.23 15.678C166.81 14.898 166.6 14.034 166.6 13.086C166.6 12.102 166.81 11.232 167.23 10.476C167.662 9.708 168.244 9.102 168.976 8.658C169.72 8.214 170.548 7.992 171.46 7.992C172.228 7.992 172.9 8.118 173.476 8.37C174.064 8.622 174.562 8.97 174.97 9.414C175.378 9.858 175.69 10.368 175.906 10.944C176.122 11.508 176.23 12.12 176.23 12.78C176.23 12.948 176.218 13.122 176.194 13.302C176.182 13.482 176.152 13.638 176.104 13.77H168.544V11.97H174.772L173.656 12.816C173.764 12.264 173.734 11.772 173.566 11.34C173.41 10.908 173.146 10.566 172.774 10.314C172.414 10.062 171.976 9.936 171.46 9.936C170.968 9.936 170.53 10.062 170.146 10.314C169.762 10.554 169.468 10.914 169.264 11.394C169.072 11.862 169 12.432 169.048 13.104C169 13.704 169.078 14.238 169.282 14.706C169.498 15.162 169.81 15.516 170.218 15.768C170.638 16.02 171.118 16.146 171.658 16.146C172.198 16.146 172.654 16.032 173.026 15.804C173.41 15.576 173.71 15.27 173.926 14.886L175.834 15.822C175.642 16.29 175.342 16.704 174.934 17.064C174.526 17.424 174.04 17.706 173.476 17.91C172.924 18.114 172.312 18.216 171.64 18.216Z" fill="white"/>
<path d="M56.9588 36V27.2727H60.0696C60.7486 27.2727 61.3111 27.3963 61.7571 27.6435C62.2031 27.8906 62.5369 28.2287 62.7585 28.6577C62.9801 29.0838 63.0909 29.5639 63.0909 30.098C63.0909 30.6349 62.9787 31.1179 62.7543 31.5469C62.5327 31.973 62.1974 32.3111 61.7486 32.5611C61.3026 32.8082 60.7415 32.9318 60.0653 32.9318H57.9261V31.8153H59.946C60.375 31.8153 60.723 31.7415 60.9901 31.5938C61.2571 31.4432 61.4531 31.2386 61.5781 30.9801C61.7031 30.7216 61.7656 30.4276 61.7656 30.098C61.7656 29.7685 61.7031 29.4759 61.5781 29.2202C61.4531 28.9645 61.2557 28.7642 60.9858 28.6193C60.7188 28.4744 60.3665 28.402 59.929 28.402H58.2756V36H56.9588ZM64.5323 36V29.4545H65.7638V30.4943H65.832C65.9513 30.142 66.1616 29.8651 66.4627 29.6634C66.7667 29.4588 67.1104 29.3565 67.494 29.3565C67.5735 29.3565 67.6673 29.3594 67.7752 29.3651C67.886 29.3707 67.9727 29.3778 68.0352 29.3864V30.6051C67.984 30.5909 67.8931 30.5753 67.7624 30.5582C67.6317 30.5384 67.5011 30.5284 67.3704 30.5284C67.0692 30.5284 66.8008 30.5923 66.565 30.7202C66.332 30.8452 66.1474 31.0199 66.011 31.2443C65.8746 31.4659 65.8065 31.7187 65.8065 32.0028V36H64.5323ZM71.6605 36.1321C71.0469 36.1321 70.5114 35.9915 70.054 35.7102C69.5966 35.429 69.2415 35.0355 68.9886 34.5298C68.7358 34.0241 68.6094 33.4332 68.6094 32.7571C68.6094 32.0781 68.7358 31.4844 68.9886 30.9759C69.2415 30.4673 69.5966 30.0724 70.054 29.7912C70.5114 29.5099 71.0469 29.3693 71.6605 29.3693C72.2741 29.3693 72.8097 29.5099 73.267 29.7912C73.7244 30.0724 74.0795 30.4673 74.3324 30.9759C74.5852 31.4844 74.7116 32.0781 74.7116 32.7571C74.7116 33.4332 74.5852 34.0241 74.3324 34.5298C74.0795 35.0355 73.7244 35.429 73.267 35.7102C72.8097 35.9915 72.2741 36.1321 71.6605 36.1321ZM71.6648 35.0625C72.0625 35.0625 72.392 34.9574 72.6534 34.7472C72.9148 34.5369 73.108 34.2571 73.233 33.9077C73.3608 33.5582 73.4247 33.1733 73.4247 32.7528C73.4247 32.3352 73.3608 31.9517 73.233 31.6023C73.108 31.25 72.9148 30.9673 72.6534 30.7543C72.392 30.5412 72.0625 30.4347 71.6648 30.4347C71.2642 30.4347 70.9318 30.5412 70.6676 30.7543C70.4063 30.9673 70.2116 31.25 70.0838 31.6023C69.9588 31.9517 69.8963 32.3352 69.8963 32.7528C69.8963 33.1733 69.9588 33.5582 70.0838 33.9077C70.2116 34.2571 70.4063 34.5369 70.6676 34.7472C70.9318 34.9574 71.2642 35.0625 71.6648 35.0625ZM78.5842 36.1278C78.0558 36.1278 77.5842 35.9929 77.1694 35.723C76.7575 35.4503 76.4336 35.0625 76.1978 34.5597C75.9648 34.054 75.8484 33.4474 75.8484 32.7401C75.8484 32.0327 75.9663 31.4276 76.2021 30.9247C76.4407 30.4219 76.7674 30.0369 77.1822 29.7699C77.5969 29.5028 78.0671 29.3693 78.5927 29.3693C78.9989 29.3693 79.3256 29.4375 79.5728 29.5739C79.8228 29.7074 80.016 29.8636 80.1523 30.0426C80.2915 30.2216 80.3995 30.3793 80.4762 30.5156H80.5529V27.2727H81.8271V36H80.5827V34.9815H80.4762C80.3995 35.1207 80.2887 35.2798 80.1438 35.4588C80.0018 35.6378 79.8058 35.794 79.5558 35.9276C79.3058 36.0611 78.9819 36.1278 78.5842 36.1278ZM78.8654 35.0412C79.2319 35.0412 79.5415 34.9446 79.7944 34.7514C80.0501 34.5554 80.2433 34.2841 80.3739 33.9375C80.5075 33.5909 80.5742 33.1875 80.5742 32.7273C80.5742 32.2727 80.5089 31.875 80.3782 31.5341C80.2475 31.1932 80.0558 30.9276 79.8029 30.7372C79.5501 30.5469 79.2376 30.4517 78.8654 30.4517C78.4819 30.4517 78.1623 30.5511 77.9066 30.75C77.6509 30.9489 77.4577 31.2202 77.3271 31.5639C77.1992 31.9077 77.1353 32.2955 77.1353 32.7273C77.1353 33.1648 77.2006 33.5582 77.3313 33.9077C77.462 34.2571 77.6552 34.5341 77.9109 34.7386C78.1694 34.9403 78.4876 35.0412 78.8654 35.0412ZM87.7919 33.2855V29.4545H89.0703V36H87.8175V34.8665H87.7493C87.5987 35.2159 87.3572 35.5071 87.0249 35.7401C86.6953 35.9702 86.2848 36.0852 85.7933 36.0852C85.3729 36.0852 85.0007 35.9929 84.6768 35.8082C84.3558 35.6207 84.103 35.3438 83.9183 34.9773C83.7365 34.6108 83.6456 34.1577 83.6456 33.6179V29.4545H84.9197V33.4645C84.9197 33.9105 85.0433 34.2656 85.2905 34.5298C85.5376 34.794 85.8587 34.9261 86.2536 34.9261C86.4922 34.9261 86.7294 34.8665 86.9652 34.7472C87.2038 34.6278 87.4013 34.4474 87.5575 34.206C87.7166 33.9645 87.7947 33.6577 87.7919 33.2855ZM93.5394 36.1321C92.9059 36.1321 92.3604 35.9886 91.9031 35.7017C91.4485 35.4119 91.0991 35.0128 90.8548 34.5043C90.6104 33.9957 90.4883 33.4134 90.4883 32.7571C90.4883 32.0923 90.6133 31.5057 90.8633 30.9972C91.1133 30.4858 91.4656 30.0866 91.9201 29.7997C92.3746 29.5128 92.9102 29.3693 93.5266 29.3693C94.0238 29.3693 94.467 29.4616 94.8562 29.6463C95.2454 29.8281 95.5593 30.0838 95.7979 30.4134C96.0394 30.7429 96.1829 31.1278 96.2283 31.5682H94.9883C94.9201 31.2614 94.7638 30.9972 94.5195 30.7756C94.2781 30.554 93.9542 30.4432 93.5479 30.4432C93.1928 30.4432 92.8817 30.5369 92.6147 30.7244C92.3505 30.9091 92.1445 31.1733 91.9968 31.517C91.8491 31.858 91.7752 32.2614 91.7752 32.7273C91.7752 33.2045 91.8477 33.6165 91.9925 33.9631C92.1374 34.3097 92.342 34.5781 92.6062 34.7685C92.8732 34.9588 93.1871 35.054 93.5479 35.054C93.7894 35.054 94.0082 35.0099 94.2042 34.9219C94.4031 34.831 94.5692 34.7017 94.7028 34.5341C94.8391 34.3665 94.9343 34.1648 94.9883 33.929H96.2283C96.1829 34.3523 96.0451 34.7301 95.815 35.0625C95.5849 35.3949 95.2766 35.6562 94.8903 35.8466C94.5067 36.0369 94.0565 36.1321 93.5394 36.1321ZM100.646 29.4545V30.4773H97.071V29.4545H100.646ZM98.0298 27.8864H99.304V34.0781C99.304 34.3253 99.3409 34.5114 99.4148 34.6364C99.4886 34.7585 99.5838 34.8423 99.7003 34.8878C99.8196 34.9304 99.9489 34.9517 100.088 34.9517C100.19 34.9517 100.28 34.9446 100.357 34.9304C100.433 34.9162 100.493 34.9048 100.536 34.8963L100.766 35.9489C100.692 35.9773 100.587 36.0057 100.45 36.0341C100.314 36.0653 100.143 36.0824 99.9389 36.0852C99.6037 36.0909 99.2912 36.0312 99.0014 35.9062C98.7116 35.7812 98.4773 35.5881 98.2983 35.3267C98.1193 35.0653 98.0298 34.7372 98.0298 34.3423V27.8864ZM102.056 36V29.4545H103.33V36H102.056ZM102.699 28.4446C102.478 28.4446 102.287 28.3707 102.128 28.223C101.972 28.0724 101.894 27.8935 101.894 27.6861C101.894 27.4759 101.972 27.2969 102.128 27.1491C102.287 26.9986 102.478 26.9233 102.699 26.9233C102.921 26.9233 103.11 26.9986 103.266 27.1491C103.425 27.2969 103.505 27.4759 103.505 27.6861C103.505 27.8935 103.425 28.0724 103.266 28.223C103.11 28.3707 102.921 28.4446 102.699 28.4446ZM107.801 36.1321C107.188 36.1321 106.652 35.9915 106.195 35.7102C105.737 35.429 105.382 35.0355 105.129 34.5298C104.876 34.0241 104.75 33.4332 104.75 32.7571C104.75 32.0781 104.876 31.4844 105.129 30.9759C105.382 30.4673 105.737 30.0724 106.195 29.7912C106.652 29.5099 107.188 29.3693 107.801 29.3693C108.415 29.3693 108.95 29.5099 109.408 29.7912C109.865 30.0724 110.22 30.4673 110.473 30.9759C110.726 31.4844 110.852 32.0781 110.852 32.7571C110.852 33.4332 110.726 34.0241 110.473 34.5298C110.22 35.0355 109.865 35.429 109.408 35.7102C108.95 35.9915 108.415 36.1321 107.801 36.1321ZM107.805 35.0625C108.203 35.0625 108.533 34.9574 108.794 34.7472C109.055 34.5369 109.249 34.2571 109.374 33.9077C109.501 33.5582 109.565 33.1733 109.565 32.7528C109.565 32.3352 109.501 31.9517 109.374 31.6023C109.249 31.25 109.055 30.9673 108.794 30.7543C108.533 30.5412 108.203 30.4347 107.805 30.4347C107.405 30.4347 107.072 30.5412 106.808 30.7543C106.547 30.9673 106.352 31.25 106.224 31.6023C106.099 31.9517 106.037 32.3352 106.037 32.7528C106.037 33.1733 106.099 33.5582 106.224 33.9077C106.352 34.2571 106.547 34.5369 106.808 34.7472C107.072 34.9574 107.405 35.0625 107.805 35.0625ZM113.549 32.1136V36H112.275V29.4545H113.498V30.5199H113.578C113.729 30.1733 113.965 29.8949 114.286 29.6847C114.61 29.4744 115.017 29.3693 115.509 29.3693C115.955 29.3693 116.346 29.4631 116.681 29.6506C117.016 29.8352 117.276 30.1108 117.461 30.4773C117.645 30.8437 117.738 31.2969 117.738 31.8366V36H116.463V31.9901C116.463 31.5156 116.34 31.1449 116.093 30.8778C115.846 30.608 115.506 30.473 115.074 30.473C114.779 30.473 114.516 30.5369 114.286 30.6648C114.059 30.7926 113.878 30.9801 113.745 31.2273C113.614 31.4716 113.549 31.767 113.549 32.1136Z" fill="#F3F4F6"/>
<defs>
<clipPath id="clip0_2656_8635">
<rect width="35" height="35" fill="white" transform="translate(2.5 3.5)"/>
</clipPath>
</defs>
</svg>
