<svg width="24" height="24" viewBox="0 0 24 24" fill="none" xmlns="http://www.w3.org/2000/svg">
<path d="M2.5293 20.2375C3.32679 20.9695 4.32352 21.4486 5.39336 21.614C5.51008 21.0269 5.48849 20.4208 5.33032 19.8435C5.17214 19.2662 4.88172 18.7337 4.48206 18.2881L2.5293 20.2375Z" fill="#6C737F"/>
<path d="M12.6133 19.416C12.2988 19.416 11.9913 19.5093 11.7297 19.6841C11.4682 19.8588 11.2644 20.1072 11.144 20.3978C11.0236 20.6885 10.9921 21.0082 11.0535 21.3167C11.1149 21.6253 11.2664 21.9086 11.4888 22.1311C11.7112 22.3535 11.9946 22.5049 12.3031 22.5663C12.6116 22.6277 12.9314 22.5962 13.222 22.4758C13.5126 22.3554 13.761 22.1516 13.9358 21.89C14.1105 21.6285 14.2038 21.321 14.2038 21.0064C14.2033 20.5848 14.0356 20.1805 13.7374 19.8823C13.4393 19.5842 13.035 19.4165 12.6133 19.416Z" fill="#6C737F"/>
<path d="M11.732 15.8025C11.4668 15.8516 11.1976 15.8764 10.9278 15.8765C9.85319 15.8766 8.81684 15.4774 8.01999 14.7563L6.5791 16.1947L10.2975 19.9065C11.232 18.8968 11.7495 17.5706 11.7459 16.1948C11.7459 16.0633 11.7413 15.9325 11.732 15.8025Z" fill="#6C737F"/>
<path d="M4.81396 17.9568C5.25917 18.4549 5.58485 19.0479 5.7662 19.6909C5.94755 20.3338 5.97978 21.0096 5.86045 21.6669C6.60594 21.7203 7.3545 21.6212 8.06033 21.3754C8.76617 21.1296 9.41446 20.7424 9.96553 20.2375L6.24721 16.5259L4.81396 17.9568Z" fill="#6C737F"/>
<path d="M16.1242 21.819C16.1104 21.8285 16.0986 21.8406 16.0894 21.8547C16.0803 21.8688 16.074 21.8845 16.071 21.901C16.0679 21.9175 16.0682 21.9345 16.0717 21.9509C16.0752 21.9673 16.0819 21.9828 16.0914 21.9967C16.2118 22.1703 16.396 22.2893 16.6038 22.3274C16.8116 22.3656 17.0261 22.32 17.2003 22.2004L17.94 21.6918C18.0406 21.6223 18.1238 21.5306 18.1833 21.4238L17.3531 20.9741L16.1242 21.819Z" fill="#6C737F"/>
<path d="M16.8903 20.7234L15.5488 19.9968L16.3206 21.1152L16.8903 20.7234Z" fill="#6C737F"/>
<path d="M20.6333 14.7623L15.2731 15.1085L15.0308 16.2381L20.3902 16.6316C20.5331 16.6417 20.6754 16.6058 20.7965 16.5292L22.1896 15.6412L21.2387 14.9371C21.0644 14.808 20.8495 14.746 20.6333 14.7623Z" fill="#6C737F"/>
<path d="M21.6936 4.04165C21.4624 3.60127 21.1131 3.23404 20.6848 2.9812L20.3408 3.72604L21.5767 4.29464L21.6936 4.04165Z" fill="#6C737F"/>
<path d="M19.7612 19.6427L14.6945 17.8057L14.4648 18.8767L19.1734 21.4271C19.3769 21.5377 19.6151 21.5656 19.8387 21.505L21.0006 21.1923L20.0775 19.8841C19.9993 19.773 19.8889 19.6887 19.7612 19.6427Z" fill="#6C737F"/>
<path d="M20.4376 17.1021C20.4104 17.1021 20.3831 17.1011 20.356 17.0991L14.9317 16.7007L14.7939 17.3429L19.9212 19.2018C19.9711 19.2201 20.0196 19.2418 20.0665 19.2668L22.0006 18.4495L20.6076 17.0888C20.5514 17.0975 20.4945 17.1019 20.4376 17.1021Z" fill="#6C737F"/>
<path d="M13.3345 18.5732L14.1157 14.9177L14.8025 15.0644L14.0213 18.72L13.3345 18.5732Z" fill="#6C737F"/>
<path d="M15.5506 14.6209L16.482 12.6038C16.3384 12.5575 16.1978 12.5027 16.0607 12.4397C15.9237 12.3764 15.7904 12.3051 15.6616 12.2263L14.5923 14.5419L15.0985 14.6501L15.5506 14.6209Z" fill="#6C737F"/>
<path d="M13.0065 14.396L12.9439 14.3053C12.7055 13.9603 12.6033 13.5392 12.6571 13.1233C12.696 12.8222 12.622 12.5173 12.4493 12.2675L6.26602 3.30754C6.07217 3.02787 5.77546 2.83635 5.44077 2.77486C5.10609 2.71337 4.76068 2.78691 4.48008 2.97941C4.34135 3.07468 4.22277 3.19638 4.13114 3.33753C4.0395 3.47869 3.97661 3.63653 3.94606 3.80203C3.91552 3.96752 3.91791 4.13742 3.95311 4.30199C3.98831 4.46656 4.05563 4.62257 4.15121 4.76108L8.14496 10.548C9.11334 10.8716 9.98243 11.4384 10.669 12.1941C11.3556 12.9499 11.8366 13.8692 12.0661 14.8641C12.3279 14.6206 12.6544 14.4581 13.0065 14.396ZM4.96749 4.34901C4.94187 4.36606 4.91314 4.37791 4.88294 4.38386C4.85274 4.38982 4.82167 4.38977 4.79149 4.38371C4.76131 4.37766 4.73262 4.36572 4.70706 4.34858C4.6815 4.33143 4.65956 4.30942 4.6425 4.2838L4.58916 4.20332C4.5721 4.1777 4.56026 4.14897 4.5543 4.11877C4.54835 4.08857 4.5484 4.0575 4.55445 4.02732C4.56051 3.99714 4.57245 3.96845 4.58959 3.94289C4.60673 3.91733 4.62874 3.89539 4.65436 3.87833C4.67998 3.86128 4.70871 3.84943 4.73891 3.84348C4.76911 3.83752 4.80018 3.83757 4.83036 3.84363C4.86054 3.84968 4.88923 3.86162 4.91479 3.87877C4.94035 3.89591 4.96229 3.91792 4.97935 3.94354L5.03288 4.02402C5.04993 4.04965 5.06176 4.07839 5.0677 4.1086C5.07364 4.1388 5.07357 4.16988 5.0675 4.20006C5.06143 4.23024 5.04947 4.25892 5.03231 4.28448C5.01515 4.31004 4.99312 4.33196 4.96749 4.34901ZM7.44717 8.07426C7.42155 8.09131 7.39283 8.10316 7.36263 8.10911C7.33243 8.11507 7.30136 8.11502 7.27118 8.10896C7.241 8.10291 7.21231 8.09097 7.18675 8.07382C7.16118 8.05668 7.13925 8.03467 7.12219 8.00905L5.11758 4.99757C5.10002 4.97196 5.08772 4.94312 5.0814 4.91271C5.07508 4.88231 5.07486 4.85095 5.08076 4.82046C5.08666 4.78998 5.09856 4.76097 5.11577 4.73512C5.13298 4.70927 5.15516 4.6871 5.18101 4.66989C5.20686 4.65269 5.23587 4.64079 5.26636 4.63489C5.29685 4.629 5.32821 4.62922 5.35861 4.63554C5.38901 4.64187 5.41785 4.65417 5.44346 4.67174C5.46907 4.68931 5.49092 4.71179 5.50777 4.73788L7.51242 7.74932C7.54686 7.80105 7.55935 7.86434 7.54713 7.92528C7.53491 7.98621 7.49899 8.0398 7.44727 8.07426H7.44717Z" fill="#6C737F"/>
<path d="M12.869 18.4963L13.6548 14.8329C12.969 14.7622 12.3297 15.0587 12.1783 15.5378C12.2022 15.7559 12.2143 15.9752 12.2144 16.1946C12.2151 16.8275 12.1151 17.4565 11.918 18.0579C12.1795 18.4045 12.6113 18.4707 12.869 18.4963Z" fill="#6C737F"/>
<path d="M18.3784 6.85844L17.1426 6.28979L16.6689 7.31556L17.9048 7.8842L18.3784 6.85844Z" fill="#6C737F"/>
<path d="M4.48187 17.6257L5.9154 16.1948L2.19699 12.4829C1.26243 13.4926 0.744918 14.8188 0.748554 16.1947C0.748554 16.3243 0.75307 16.4531 0.762101 16.5812C1.42074 16.4614 2.09801 16.4932 2.74252 16.6742C3.38704 16.8552 3.98186 17.1806 4.48187 17.6257Z" fill="#6C737F"/>
<path d="M0.814941 17.0483C0.981069 18.1173 1.46242 19.1124 2.19738 19.9063L4.15033 17.9568C3.70273 17.5574 3.16845 17.2674 2.58963 17.1098C2.01081 16.9521 1.40328 16.9311 0.814941 17.0483Z" fill="#6C737F"/>
<path d="M7.68825 14.425C7.23942 13.9308 6.9112 13.3393 6.72936 12.697C6.54752 12.0547 6.51699 11.3789 6.64017 10.7228C6.50936 10.7134 6.37834 10.7087 6.24712 10.7087C4.87056 10.7064 3.54339 11.2215 2.52881 12.1518L6.24712 15.8634L7.68825 14.425Z" fill="#6C737F"/>
<path d="M9.96542 12.152C9.16945 11.4213 8.17494 10.9426 7.10731 10.7764C6.99237 11.3622 7.01501 11.9668 7.17344 12.5424C7.33188 13.1181 7.62179 13.6491 8.02034 14.0936L9.96542 12.152Z" fill="#6C737F"/>
<path d="M11.6788 15.3351C11.5118 14.2682 11.0309 13.2753 10.2974 12.4829L8.35205 14.4246C8.7986 14.823 9.33136 15.1125 9.90854 15.2704C10.4857 15.4284 11.0917 15.4505 11.6788 15.3351Z" fill="#6C737F"/>
<path d="M15.3261 9.10521L15.3762 8.99674L15.2798 8.95239C15.2942 9.00377 15.3097 9.05471 15.3261 9.10521Z" fill="#6C737F"/>
<path d="M19.0747 10.8318C19.1243 10.8113 19.1738 10.7896 19.2232 10.7666L19.1256 10.7217L19.0747 10.8318Z" fill="#6C737F"/>
<path d="M15.1662 7.14038C15.111 7.55254 15.11 7.97014 15.1631 8.38257L15.5728 8.57105L16.0462 7.54529L15.1662 7.14038Z" fill="#6C737F"/>
<path d="M17.0083 10.9437C17.4796 11.1036 17.9859 11.1301 18.4713 11.0204L18.6998 10.5256L17.4639 9.95703L17.0083 10.9437Z" fill="#6C737F"/>
<path d="M15.8021 9.19263L15.5742 9.68622C15.8051 10.1269 16.1543 10.4944 16.5825 10.7476L17.038 9.76122L15.8021 9.19263Z" fill="#6C737F"/>
<path d="M19.3218 10.296L19.7309 10.4843C20.0789 10.2561 20.3962 9.98405 20.6749 9.67494L19.7954 9.27026L19.3218 10.296Z" fill="#6C737F"/>
<path d="M18.1338 8.50562L17.6602 9.53138L18.896 10.1L19.3697 9.07426L18.1338 8.50562Z" fill="#6C737F"/>
<path d="M21.0124 1.71558C20.5576 1.50747 20.0629 1.40084 19.5628 1.40311C17.6995 1.40311 15.7134 2.80547 14.6792 5.0453C13.9348 6.65728 13.8124 8.40675 14.3431 9.8453C14.7178 10.8605 15.3794 11.6104 16.2565 12.014C18.4377 13.0176 21.2786 11.5237 22.5897 8.6843C23.334 7.07227 23.4565 5.32285 22.9258 3.8843C22.5511 2.86903 21.8895 2.11908 21.0124 1.71558ZM22.0459 8.43464C21.16 10.353 19.4548 11.553 17.8514 11.553C17.4179 11.5549 16.9893 11.4625 16.5951 11.2821C15.832 10.931 15.2576 10.2818 14.934 9.40486C14.4799 8.17411 14.5851 6.67603 15.223 5.29472C16.3476 2.85933 18.793 1.58194 20.6738 2.4473C21.4369 2.79839 22.0113 3.44752 22.3349 4.32446C22.7891 5.55521 22.6837 7.05328 22.0459 8.4346V8.43464Z" fill="#6C737F"/>
<path d="M21.8064 4.91626L21.333 5.94207L22.1318 6.30957C22.1656 5.88105 22.1386 5.44989 22.0515 5.02895L21.8064 4.91626Z" fill="#6C737F"/>
<path d="M20.6626 7.3932L21.7642 7.89996C21.9036 7.54388 22.0066 7.17459 22.0717 6.79774L21.1363 6.36743L20.6626 7.3932Z" fill="#6C737F"/>
<path d="M19.9922 8.84462L20.9847 9.30123C21.2136 8.99783 21.412 8.67251 21.5768 8.33003L20.4659 7.81909L19.9922 8.84462Z" fill="#6C737F"/>
<path d="M19.0484 5.40702L17.8125 4.83838L17.3389 5.86414L18.5747 6.43279L19.0484 5.40702Z" fill="#6C737F"/>
<path d="M21.3804 4.7202L20.1445 4.15161L19.6709 5.17738L20.9068 5.74597L21.3804 4.7202Z" fill="#6C737F"/>
<path d="M15.9985 8.76698L17.2344 9.33557L17.708 8.3098L16.4722 7.74121L15.9985 8.76698Z" fill="#6C737F"/>
<path d="M16.7168 6.09377L15.6072 5.58325C15.4532 5.93056 15.3338 6.29216 15.2505 6.66283L16.2432 7.11953L16.7168 6.09377Z" fill="#6C737F"/>
<path d="M20.7105 6.17162L19.4746 5.60303L19.001 6.62879L20.2368 7.19739L20.7105 6.17162Z" fill="#6C737F"/>
<path d="M20.2588 2.78567C19.9855 2.69055 19.698 2.64234 19.4086 2.64307C19.2025 2.64384 18.9969 2.66619 18.7954 2.70978L18.6792 2.96154L19.9151 3.53014L20.2588 2.78567Z" fill="#6C737F"/>
<path d="M20.0401 7.62304L18.8042 7.05444L18.3306 8.08021L19.5664 8.6488L20.0401 7.62304Z" fill="#6C737F"/>
<path d="M17.3867 4.64264L16.4549 4.21411C16.2094 4.50769 15.9943 4.82543 15.813 5.16244L16.9131 5.66869L17.3867 4.64264Z" fill="#6C737F"/>
<path d="M18.0568 3.19111L17.8142 3.07959C17.4381 3.28798 17.0929 3.54776 16.7886 3.85143L17.5831 4.21706L18.0568 3.19111Z" fill="#6C737F"/>
<path d="M19.2451 4.98157L19.7188 3.9558L18.4829 3.38721L18.0093 4.41297L19.2451 4.98157Z" fill="#6C737F"/>
</svg>
