<svg width="32" height="51" viewBox="0 0 32 51" fill="none" xmlns="http://www.w3.org/2000/svg">
<g clip-path="url(#clip0_2313_5653)">
<g filter="url(#filter0_f_2313_5653)">
<ellipse cx="15.9998" cy="46.8148" rx="5.33333" ry="2.96296" fill="black" fill-opacity="0.12"/>
</g>
<mask id="path-2-outside-1_2313_5653" maskUnits="userSpaceOnUse" x="-0.814941" y="-0.814941" width="33" height="49" fill="black">
<rect fill="white" x="-0.814941" y="-0.814941" width="33" height="49"/>
<path fill-rule="evenodd" clip-rule="evenodd" d="M27.8305 24.9184C29.7038 22.4373 30.8147 19.3483 30.8147 15.9999C30.8147 7.81788 24.1819 1.18506 15.9999 1.18506C7.81788 1.18506 1.18506 7.81788 1.18506 15.9999C1.18506 19.3483 2.29594 22.4373 4.16925 24.9184C4.83505 25.8447 5.73515 26.8305 6.73153 27.9218C10.1923 31.712 14.8147 36.7744 14.8147 45.0369C14.8147 45.6915 15.3453 46.2221 15.9999 46.2221C16.6544 46.2221 17.1851 45.6915 17.1851 45.0369C17.1851 36.7744 21.8074 31.712 25.2682 27.9218C26.2646 26.8305 27.1647 25.8448 27.8305 24.9184Z"/>
</mask>
<path fill-rule="evenodd" clip-rule="evenodd" d="M27.8305 24.9184C29.7038 22.4373 30.8147 19.3483 30.8147 15.9999C30.8147 7.81788 24.1819 1.18506 15.9999 1.18506C7.81788 1.18506 1.18506 7.81788 1.18506 15.9999C1.18506 19.3483 2.29594 22.4373 4.16925 24.9184C4.83505 25.8447 5.73515 26.8305 6.73153 27.9218C10.1923 31.712 14.8147 36.7744 14.8147 45.0369C14.8147 45.6915 15.3453 46.2221 15.9999 46.2221C16.6544 46.2221 17.1851 45.6915 17.1851 45.0369C17.1851 36.7744 21.8074 31.712 25.2682 27.9218C26.2646 26.8305 27.1647 25.8448 27.8305 24.9184Z" fill="#1D9A6C"/>
<path d="M27.8305 24.9184L26.8846 24.2043L26.8762 24.2154L26.8681 24.2267L27.8305 24.9184ZM4.16925 24.9184L5.13165 24.2267L5.12351 24.2154L5.11511 24.2042L4.16925 24.9184ZM6.73153 27.9218L7.60676 27.1226L6.73153 27.9218ZM25.2682 27.9218L24.393 27.1226L25.2682 27.9218ZM28.7763 25.6326C30.7996 22.9529 31.9999 19.6149 31.9999 15.9999H29.6295C29.6295 19.0818 28.608 21.9217 26.8846 24.2043L28.7763 25.6326ZM31.9999 15.9999C31.9999 7.16332 24.8364 -0.0001266 15.9999 -0.0001266V2.37024C23.5273 2.37024 29.6295 8.47244 29.6295 15.9999H31.9999ZM15.9999 -0.0001266C7.16332 -0.0001266 -0.0001266 7.16332 -0.0001266 15.9999H2.37024C2.37024 8.47244 8.47244 2.37024 15.9999 2.37024V-0.0001266ZM-0.0001266 15.9999C-0.0001266 19.6148 1.20015 22.9529 3.2234 25.6326L5.11511 24.2042C3.39172 21.9217 2.37024 19.0818 2.37024 15.9999H-0.0001266ZM3.20685 25.6101C3.92156 26.6045 4.87434 27.6455 5.8563 28.7209L7.60676 27.1226C6.59596 26.0156 5.74853 25.085 5.13165 24.2267L3.20685 25.6101ZM5.8563 28.7209C9.32199 32.5165 13.6295 37.2746 13.6295 45.0369H15.9999C15.9999 36.2742 11.0627 30.9075 7.60676 27.1226L5.8563 28.7209ZM13.6295 45.0369C13.6295 46.346 14.6908 47.4073 15.9999 47.4073V45.0369L15.9999 45.0369H13.6295ZM15.9999 47.4073C17.309 47.4073 18.3702 46.346 18.3702 45.0369H15.9999L15.9999 45.0369V47.4073ZM18.3702 45.0369C18.3702 37.2746 22.6778 32.5165 26.1434 28.7209L24.393 27.1226C20.9371 30.9075 15.9999 36.2742 15.9999 45.0369H18.3702ZM26.1434 28.7209C27.1254 27.6455 28.0782 26.6045 28.7929 25.6101L26.8681 24.2267C26.2512 25.085 25.4038 26.0156 24.393 27.1226L26.1434 28.7209Z" fill="url(#paint0_linear_2313_5653)" mask="url(#path-2-outside-1_2313_5653)"/>
<path d="M16 6.25C14.0716 6.25 12.1866 6.82183 10.5832 7.89317C8.97982 8.96451 7.73013 10.4873 6.99218 12.2688C6.25422 14.0504 6.06114 16.0108 6.43735 17.9021C6.81355 19.7934 7.74215 21.5307 9.10571 22.8943C10.4693 24.2579 12.2066 25.1865 14.0979 25.5627C15.9892 25.9389 17.9496 25.7458 19.7312 25.0078C21.5127 24.2699 23.0355 23.0202 24.1068 21.4168C25.1782 19.8134 25.75 17.9284 25.75 16C25.7473 13.415 24.7192 10.9366 22.8913 9.10872C21.0634 7.28084 18.585 6.25273 16 6.25ZM16.75 9.94187L19.0741 8.34344C20.4047 8.87945 21.5734 9.75163 22.4659 10.8747L21.7159 13.4003C21.6972 13.4003 21.6775 13.4097 21.6588 13.4163L19.5194 14.1109C19.4873 14.1212 19.456 14.1337 19.4256 14.1484L16.75 12.3081C16.75 12.2894 16.75 12.2697 16.75 12.25V10C16.75 9.98031 16.75 9.96063 16.75 9.94187ZM12.9288 8.34344L15.25 9.94187C15.25 9.96063 15.25 9.98031 15.25 10V12.25C15.25 12.2697 15.25 12.2894 15.25 12.3081L12.5725 14.1522C12.5422 14.1375 12.5109 14.125 12.4788 14.1147L10.3394 13.42C10.3206 13.4134 10.3009 13.4087 10.2822 13.4041L9.53219 10.8784C10.4256 9.75336 11.596 8.8798 12.9288 8.34344ZM11.71 20.4456H9.05313C8.27541 19.2364 7.82954 17.8439 7.76032 16.4078L9.82282 14.8253C9.84056 14.8332 9.85871 14.84 9.87719 14.8459L12.0175 15.5416C12.0461 15.5502 12.0752 15.5571 12.1047 15.5622L13.1163 18.5078C13.1022 18.5247 13.0881 18.5416 13.075 18.5594L11.7531 20.3791C11.7376 20.4005 11.7232 20.4227 11.71 20.4456ZM18.1272 23.9688C16.7334 24.34 15.2666 24.34 13.8728 23.9688L12.9297 21.3063C12.9419 21.2913 12.955 21.2772 12.9663 21.2612L14.2891 19.4406C14.3046 19.4196 14.319 19.3976 14.3322 19.375H17.6678C17.681 19.3976 17.6954 19.4196 17.7109 19.4406L19.0338 21.2612C19.045 21.2772 19.0581 21.2913 19.0703 21.3063L18.1272 23.9688ZM20.29 20.4428C20.2768 20.4199 20.2624 20.3976 20.2469 20.3762L18.9241 18.5594C18.9109 18.5416 18.8969 18.5247 18.8828 18.5078L19.8944 15.5622C19.9238 15.5571 19.953 15.5502 19.9816 15.5416L22.1219 14.8459C22.1404 14.84 22.1585 14.8332 22.1763 14.8253L24.2388 16.4078C24.1695 17.8439 23.7237 19.2364 22.9459 20.4456L20.29 20.4428Z" fill="white"/>
</g>
<defs>
<filter id="filter0_f_2313_5653" x="8.29613" y="41.4814" width="15.4072" height="10.6668" filterUnits="userSpaceOnUse" color-interpolation-filters="sRGB">
<feFlood flood-opacity="0" result="BackgroundImageFix"/>
<feBlend mode="normal" in="SourceGraphic" in2="BackgroundImageFix" result="shape"/>
<feGaussianBlur stdDeviation="1.18519" result="effect1_foregroundBlur_2313_5653"/>
</filter>
<linearGradient id="paint0_linear_2313_5653" x1="15.9999" y1="1.18506" x2="15.9999" y2="46.2221" gradientUnits="userSpaceOnUse">
<stop stop-color="white"/>
<stop offset="1" stop-color="white" stop-opacity="0.5"/>
</linearGradient>
<clipPath id="clip0_2313_5653">
<rect width="32" height="50.963" fill="white"/>
</clipPath>
</defs>
</svg>
