<svg width="32" height="51" viewBox="0 0 32 51" fill="none" xmlns="http://www.w3.org/2000/svg">
<g clip-path="url(#clip0_2313_1730)">
<g filter="url(#filter0_f_2313_1730)">
<ellipse cx="15.9998" cy="46.8148" rx="5.33333" ry="2.96296" fill="black" fill-opacity="0.12"/>
</g>
<mask id="path-2-outside-1_2313_1730" maskUnits="userSpaceOnUse" x="-0.814941" y="-0.814941" width="33" height="49" fill="black">
<rect fill="white" x="-0.814941" y="-0.814941" width="33" height="49"/>
<path fill-rule="evenodd" clip-rule="evenodd" d="M27.8305 24.9184C29.7038 22.4373 30.8147 19.3483 30.8147 15.9999C30.8147 7.81788 24.1819 1.18506 15.9999 1.18506C7.81788 1.18506 1.18506 7.81788 1.18506 15.9999C1.18506 19.3483 2.29594 22.4373 4.16925 24.9184C4.83505 25.8447 5.73515 26.8305 6.73153 27.9218C10.1923 31.712 14.8147 36.7744 14.8147 45.0369C14.8147 45.6915 15.3453 46.2221 15.9999 46.2221C16.6544 46.2221 17.1851 45.6915 17.1851 45.0369C17.1851 36.7744 21.8074 31.712 25.2682 27.9218C26.2646 26.8305 27.1647 25.8448 27.8305 24.9184Z"/>
</mask>
<path fill-rule="evenodd" clip-rule="evenodd" d="M27.8305 24.9184C29.7038 22.4373 30.8147 19.3483 30.8147 15.9999C30.8147 7.81788 24.1819 1.18506 15.9999 1.18506C7.81788 1.18506 1.18506 7.81788 1.18506 15.9999C1.18506 19.3483 2.29594 22.4373 4.16925 24.9184C4.83505 25.8447 5.73515 26.8305 6.73153 27.9218C10.1923 31.712 14.8147 36.7744 14.8147 45.0369C14.8147 45.6915 15.3453 46.2221 15.9999 46.2221C16.6544 46.2221 17.1851 45.6915 17.1851 45.0369C17.1851 36.7744 21.8074 31.712 25.2682 27.9218C26.2646 26.8305 27.1647 25.8448 27.8305 24.9184Z" fill="#B42318"/>
<path d="M27.8305 24.9184L26.8846 24.2043L26.8762 24.2154L26.8681 24.2267L27.8305 24.9184ZM4.16925 24.9184L5.13165 24.2267L5.12351 24.2154L5.11511 24.2042L4.16925 24.9184ZM6.73153 27.9218L7.60676 27.1226L6.73153 27.9218ZM25.2682 27.9218L24.393 27.1226L25.2682 27.9218ZM28.7763 25.6326C30.7996 22.9529 31.9999 19.6149 31.9999 15.9999H29.6295C29.6295 19.0818 28.608 21.9217 26.8846 24.2043L28.7763 25.6326ZM31.9999 15.9999C31.9999 7.16332 24.8364 -0.0001266 15.9999 -0.0001266V2.37024C23.5273 2.37024 29.6295 8.47244 29.6295 15.9999H31.9999ZM15.9999 -0.0001266C7.16332 -0.0001266 -0.0001266 7.16332 -0.0001266 15.9999H2.37024C2.37024 8.47244 8.47244 2.37024 15.9999 2.37024V-0.0001266ZM-0.0001266 15.9999C-0.0001266 19.6148 1.20015 22.9529 3.2234 25.6326L5.11511 24.2042C3.39172 21.9217 2.37024 19.0818 2.37024 15.9999H-0.0001266ZM3.20685 25.6101C3.92156 26.6045 4.87434 27.6455 5.8563 28.7209L7.60676 27.1226C6.59596 26.0156 5.74853 25.085 5.13165 24.2267L3.20685 25.6101ZM5.8563 28.7209C9.32199 32.5165 13.6295 37.2746 13.6295 45.0369H15.9999C15.9999 36.2742 11.0627 30.9075 7.60676 27.1226L5.8563 28.7209ZM13.6295 45.0369C13.6295 46.346 14.6908 47.4073 15.9999 47.4073V45.0369L15.9999 45.0369H13.6295ZM15.9999 47.4073C17.309 47.4073 18.3702 46.346 18.3702 45.0369H15.9999L15.9999 45.0369V47.4073ZM18.3702 45.0369C18.3702 37.2746 22.6778 32.5165 26.1434 28.7209L24.393 27.1226C20.9371 30.9075 15.9999 36.2742 15.9999 45.0369H18.3702ZM26.1434 28.7209C27.1254 27.6455 28.0782 26.6045 28.7929 25.6101L26.8681 24.2267C26.2512 25.085 25.4038 26.0156 24.393 27.1226L26.1434 28.7209Z" fill="url(#paint0_linear_2313_1730)" mask="url(#path-2-outside-1_2313_1730)"/>
<path d="M17.2742 8.53554C17.4892 8.25057 17.4547 7.64615 17.424 7.11297C17.4229 7.08998 17.4216 7.06751 17.4203 7.04468C17.1189 7.0159 16.8139 7 16.5051 7C15.322 7 14.1899 7.21796 13.145 7.6131C13.8904 7.97128 15.0441 8.5878 16.3265 9.49873C16.7641 9.12219 17.0941 8.77458 17.2742 8.53554Z" fill="white"/>
<path d="M22.0896 13.959C21.6212 14.0119 21.2261 14.0888 20.8882 14.1966C22.5034 17.0168 23.1332 20.5797 23.2873 23.1609C24.8875 21.5305 25.9038 19.3263 25.9999 16.8848C24.8973 15.5295 23.4366 13.8062 22.0896 13.959Z" fill="white"/>
<path d="M12.4876 11.5249C13.6225 11.2887 14.6888 10.7175 15.5389 10.1146C13.7653 8.89303 12.2861 8.25909 11.9918 8.13843C10.1518 9.13312 8.67936 10.718 7.82275 12.6383C8.93617 12.1946 10.142 11.9689 11.3264 11.749C11.7096 11.6779 12.1056 11.6043 12.4876 11.5249Z" fill="white"/>
<path d="M19.0566 11.8013C19.1579 11.9031 19.259 12.0066 19.3593 12.1121C19.7295 12.5008 20.0655 12.9259 20.3736 13.3757C20.8222 13.2063 21.3504 13.0862 21.9826 13.0147C23.4722 12.8462 24.7968 14.0262 25.9337 15.3254C25.6899 13.3559 24.8453 11.5735 23.5867 10.1677C22.8997 10.2505 22.1338 10.3908 21.3532 10.6237C20.8411 10.7767 20.0256 11.1922 19.0566 11.8013Z" fill="white"/>
<path d="M17.8062 16.7095C18.196 15.3891 18.6476 14.4373 19.5225 13.8194C19.2599 13.4425 18.9774 13.0887 18.6713 12.7674C18.5297 12.6187 18.3865 12.4751 18.2427 12.334C14.7326 14.7232 9.92451 19.112 9.4873 22.9146C10.9467 24.5114 12.9441 25.6065 15.1925 25.9172C16.0112 24.2872 16.7818 20.9737 17.2398 19.003C17.4598 18.0564 17.6498 17.2391 17.8062 16.7095Z" fill="white"/>
<path d="M13.8264 14.6158C15.0503 13.488 16.3428 12.4767 17.5249 11.6639C17.1308 11.3153 16.7356 10.9939 16.3476 10.6992C15.3657 11.4373 14.0802 12.1643 12.6809 12.4553C12.289 12.5368 11.8877 12.6114 11.4998 12.6834C10.005 12.961 8.57019 13.2298 7.36352 13.9031C7.12852 14.7302 7 15.6023 7 16.5048C7 18.5237 7.63145 20.3943 8.70477 21.9336C9.40012 19.1805 11.7851 16.4968 13.8264 14.6158Z" fill="white"/>
<path d="M18.3437 11.1209C19.4745 10.4 20.4493 9.90159 21.0818 9.7128C21.6498 9.54317 22.207 9.41963 22.7346 9.32952C21.5154 8.27004 20.025 7.51493 18.3798 7.18579C18.4163 7.8496 18.4322 8.57838 18.0328 9.10787C17.8431 9.35931 17.5221 9.70416 17.1045 10.0783C17.5135 10.3967 17.9292 10.7439 18.3437 11.1209Z" fill="white"/>
<path d="M18.7178 16.9789C18.5694 17.4817 18.3822 18.2865 18.1656 19.2184C17.5262 21.9698 16.9143 24.4318 16.1997 26.0019C16.3012 26.0051 16.4026 26.0097 16.5048 26.0097C18.7199 26.0097 20.7563 25.2498 22.3723 23.9795C22.3085 21.2784 21.6609 17.4577 20.0298 14.6216C19.3972 15.0918 19.0567 15.8314 18.7178 16.9789Z" fill="white"/>
</g>
<defs>
<filter id="filter0_f_2313_1730" x="8.29613" y="41.4814" width="15.4072" height="10.6668" filterUnits="userSpaceOnUse" color-interpolation-filters="sRGB">
<feFlood flood-opacity="0" result="BackgroundImageFix"/>
<feBlend mode="normal" in="SourceGraphic" in2="BackgroundImageFix" result="shape"/>
<feGaussianBlur stdDeviation="1.18519" result="effect1_foregroundBlur_2313_1730"/>
</filter>
<linearGradient id="paint0_linear_2313_1730" x1="15.9999" y1="1.18506" x2="15.9999" y2="46.2221" gradientUnits="userSpaceOnUse">
<stop stop-color="white"/>
<stop offset="1" stop-color="white" stop-opacity="0.5"/>
</linearGradient>
<clipPath id="clip0_2313_1730">
<rect width="32" height="50.963" fill="white"/>
</clipPath>
</defs>
</svg>
