<svg width="32" height="51" viewBox="0 0 32 51" fill="none" xmlns="http://www.w3.org/2000/svg">
<g clip-path="url(#clip0_2313_1822)">
<g filter="url(#filter0_f_2313_1822)">
<ellipse cx="15.9998" cy="46.8148" rx="5.33333" ry="2.96296" fill="black" fill-opacity="0.12"/>
</g>
<mask id="path-2-outside-1_2313_1822" maskUnits="userSpaceOnUse" x="-0.814941" y="-0.814941" width="33" height="49" fill="black">
<rect fill="white" x="-0.814941" y="-0.814941" width="33" height="49"/>
<path fill-rule="evenodd" clip-rule="evenodd" d="M27.8305 24.9184C29.7038 22.4373 30.8147 19.3483 30.8147 15.9999C30.8147 7.81788 24.1819 1.18506 15.9999 1.18506C7.81788 1.18506 1.18506 7.81788 1.18506 15.9999C1.18506 19.3483 2.29594 22.4373 4.16925 24.9184C4.83505 25.8447 5.73515 26.8305 6.73153 27.9218C10.1923 31.712 14.8147 36.7744 14.8147 45.0369C14.8147 45.6915 15.3453 46.2221 15.9999 46.2221C16.6544 46.2221 17.1851 45.6915 17.1851 45.0369C17.1851 36.7744 21.8074 31.712 25.2682 27.9218C26.2646 26.8305 27.1647 25.8448 27.8305 24.9184Z"/>
</mask>
<path fill-rule="evenodd" clip-rule="evenodd" d="M27.8305 24.9184C29.7038 22.4373 30.8147 19.3483 30.8147 15.9999C30.8147 7.81788 24.1819 1.18506 15.9999 1.18506C7.81788 1.18506 1.18506 7.81788 1.18506 15.9999C1.18506 19.3483 2.29594 22.4373 4.16925 24.9184C4.83505 25.8447 5.73515 26.8305 6.73153 27.9218C10.1923 31.712 14.8147 36.7744 14.8147 45.0369C14.8147 45.6915 15.3453 46.2221 15.9999 46.2221C16.6544 46.2221 17.1851 45.6915 17.1851 45.0369C17.1851 36.7744 21.8074 31.712 25.2682 27.9218C26.2646 26.8305 27.1647 25.8448 27.8305 24.9184Z" fill="#F79009"/>
<path d="M27.8305 24.9184L26.8846 24.2043L26.8762 24.2154L26.8681 24.2267L27.8305 24.9184ZM4.16925 24.9184L5.13165 24.2267L5.12351 24.2154L5.11511 24.2042L4.16925 24.9184ZM6.73153 27.9218L7.60676 27.1226L6.73153 27.9218ZM25.2682 27.9218L24.393 27.1226L25.2682 27.9218ZM28.7763 25.6326C30.7996 22.9529 31.9999 19.6149 31.9999 15.9999H29.6295C29.6295 19.0818 28.608 21.9217 26.8846 24.2043L28.7763 25.6326ZM31.9999 15.9999C31.9999 7.16332 24.8364 -0.0001266 15.9999 -0.0001266V2.37024C23.5273 2.37024 29.6295 8.47244 29.6295 15.9999H31.9999ZM15.9999 -0.0001266C7.16332 -0.0001266 -0.0001266 7.16332 -0.0001266 15.9999H2.37024C2.37024 8.47244 8.47244 2.37024 15.9999 2.37024V-0.0001266ZM-0.0001266 15.9999C-0.0001266 19.6148 1.20015 22.9529 3.2234 25.6326L5.11511 24.2042C3.39172 21.9217 2.37024 19.0818 2.37024 15.9999H-0.0001266ZM3.20685 25.6101C3.92156 26.6045 4.87434 27.6455 5.8563 28.7209L7.60676 27.1226C6.59596 26.0156 5.74853 25.085 5.13165 24.2267L3.20685 25.6101ZM5.8563 28.7209C9.32199 32.5165 13.6295 37.2746 13.6295 45.0369H15.9999C15.9999 36.2742 11.0627 30.9075 7.60676 27.1226L5.8563 28.7209ZM13.6295 45.0369C13.6295 46.346 14.6908 47.4073 15.9999 47.4073V45.0369L15.9999 45.0369H13.6295ZM15.9999 47.4073C17.309 47.4073 18.3702 46.346 18.3702 45.0369H15.9999L15.9999 45.0369V47.4073ZM18.3702 45.0369C18.3702 37.2746 22.6778 32.5165 26.1434 28.7209L24.393 27.1226C20.9371 30.9075 15.9999 36.2742 15.9999 45.0369H18.3702ZM26.1434 28.7209C27.1254 27.6455 28.0782 26.6045 28.7929 25.6101L26.8681 24.2267C26.2512 25.085 25.4038 26.0156 24.393 27.1226L26.1434 28.7209Z" fill="url(#paint0_linear_2313_1822)" mask="url(#path-2-outside-1_2313_1822)"/>
<path d="M17.0898 20.4138L18.5515 10.4828L15.7584 8L12.9653 10.4828L14.4271 20.4138H17.0898Z" fill="white"/>
<path d="M12.3014 10.2407L12.4969 10.0669L10.1724 8L8 10.4828L12.3821 20.4138H13.7972L12.3014 10.2407Z" fill="white"/>
<path d="M15.7587 25.9999C16.5818 25.9999 17.3712 25.673 17.9532 25.091C18.5352 24.5089 18.8622 23.7196 18.8622 22.8965H12.6553C12.6553 23.7196 12.9822 24.5089 13.5643 25.091C14.1463 25.673 14.9356 25.9999 15.7587 25.9999Z" fill="white"/>
<path d="M21.345 8L19.0206 10.0669L19.2161 10.2407L17.7202 20.4138H19.1354L23.5174 10.4828L21.345 8Z" fill="white"/>
<path d="M12.6553 21.0344H18.8622V22.2758H12.6553V21.0344Z" fill="white"/>
</g>
<defs>
<filter id="filter0_f_2313_1822" x="8.29613" y="41.4814" width="15.4072" height="10.6668" filterUnits="userSpaceOnUse" color-interpolation-filters="sRGB">
<feFlood flood-opacity="0" result="BackgroundImageFix"/>
<feBlend mode="normal" in="SourceGraphic" in2="BackgroundImageFix" result="shape"/>
<feGaussianBlur stdDeviation="1.18519" result="effect1_foregroundBlur_2313_1822"/>
</filter>
<linearGradient id="paint0_linear_2313_1822" x1="15.9999" y1="1.18506" x2="15.9999" y2="46.2221" gradientUnits="userSpaceOnUse">
<stop stop-color="white"/>
<stop offset="1" stop-color="white" stop-opacity="0.5"/>
</linearGradient>
<clipPath id="clip0_2313_1822">
<rect width="32" height="50.963" fill="white"/>
</clipPath>
</defs>
</svg>
