<svg width="32" height="51" viewBox="0 0 32 51" fill="none" xmlns="http://www.w3.org/2000/svg">
<g clip-path="url(#clip0_2313_1931)">
<g filter="url(#filter0_f_2313_1931)">
<ellipse cx="15.9998" cy="46.8148" rx="5.33333" ry="2.96296" fill="black" fill-opacity="0.12"/>
</g>
<mask id="path-2-outside-1_2313_1931" maskUnits="userSpaceOnUse" x="-0.814941" y="-0.814941" width="33" height="49" fill="black">
<rect fill="white" x="-0.814941" y="-0.814941" width="33" height="49"/>
<path fill-rule="evenodd" clip-rule="evenodd" d="M27.8305 24.9184C29.7038 22.4373 30.8147 19.3483 30.8147 15.9999C30.8147 7.81788 24.1819 1.18506 15.9999 1.18506C7.81788 1.18506 1.18506 7.81788 1.18506 15.9999C1.18506 19.3483 2.29594 22.4373 4.16925 24.9184C4.83505 25.8447 5.73515 26.8305 6.73153 27.9218C10.1923 31.712 14.8147 36.7744 14.8147 45.0369C14.8147 45.6915 15.3453 46.2221 15.9999 46.2221C16.6544 46.2221 17.1851 45.6915 17.1851 45.0369C17.1851 36.7744 21.8074 31.712 25.2682 27.9218C26.2646 26.8305 27.1647 25.8448 27.8305 24.9184Z"/>
</mask>
<path fill-rule="evenodd" clip-rule="evenodd" d="M27.8305 24.9184C29.7038 22.4373 30.8147 19.3483 30.8147 15.9999C30.8147 7.81788 24.1819 1.18506 15.9999 1.18506C7.81788 1.18506 1.18506 7.81788 1.18506 15.9999C1.18506 19.3483 2.29594 22.4373 4.16925 24.9184C4.83505 25.8447 5.73515 26.8305 6.73153 27.9218C10.1923 31.712 14.8147 36.7744 14.8147 45.0369C14.8147 45.6915 15.3453 46.2221 15.9999 46.2221C16.6544 46.2221 17.1851 45.6915 17.1851 45.0369C17.1851 36.7744 21.8074 31.712 25.2682 27.9218C26.2646 26.8305 27.1647 25.8448 27.8305 24.9184Z" fill="#6941C6"/>
<path d="M27.8305 24.9184L26.8846 24.2043L26.8762 24.2154L26.8681 24.2267L27.8305 24.9184ZM4.16925 24.9184L5.13165 24.2267L5.12351 24.2154L5.11511 24.2042L4.16925 24.9184ZM6.73153 27.9218L7.60676 27.1226L6.73153 27.9218ZM25.2682 27.9218L24.393 27.1226L25.2682 27.9218ZM28.7763 25.6326C30.7996 22.9529 31.9999 19.6149 31.9999 15.9999H29.6295C29.6295 19.0818 28.608 21.9217 26.8846 24.2043L28.7763 25.6326ZM31.9999 15.9999C31.9999 7.16332 24.8364 -0.0001266 15.9999 -0.0001266V2.37024C23.5273 2.37024 29.6295 8.47244 29.6295 15.9999H31.9999ZM15.9999 -0.0001266C7.16332 -0.0001266 -0.0001266 7.16332 -0.0001266 15.9999H2.37024C2.37024 8.47244 8.47244 2.37024 15.9999 2.37024V-0.0001266ZM-0.0001266 15.9999C-0.0001266 19.6148 1.20015 22.9529 3.2234 25.6326L5.11511 24.2042C3.39172 21.9217 2.37024 19.0818 2.37024 15.9999H-0.0001266ZM3.20685 25.6101C3.92156 26.6045 4.87434 27.6455 5.8563 28.7209L7.60676 27.1226C6.59596 26.0156 5.74853 25.085 5.13165 24.2267L3.20685 25.6101ZM5.8563 28.7209C9.32199 32.5165 13.6295 37.2746 13.6295 45.0369H15.9999C15.9999 36.2742 11.0627 30.9075 7.60676 27.1226L5.8563 28.7209ZM13.6295 45.0369C13.6295 46.346 14.6908 47.4073 15.9999 47.4073V45.0369L15.9999 45.0369H13.6295ZM15.9999 47.4073C17.309 47.4073 18.3702 46.346 18.3702 45.0369H15.9999L15.9999 45.0369V47.4073ZM18.3702 45.0369C18.3702 37.2746 22.6778 32.5165 26.1434 28.7209L24.393 27.1226C20.9371 30.9075 15.9999 36.2742 15.9999 45.0369H18.3702ZM26.1434 28.7209C27.1254 27.6455 28.0782 26.6045 28.7929 25.6101L26.8681 24.2267C26.2512 25.085 25.4038 26.0156 24.393 27.1226L26.1434 28.7209Z" fill="url(#paint0_linear_2313_1931)" mask="url(#path-2-outside-1_2313_1931)"/>
<path d="M6.5293 25.2375C7.32679 25.9695 8.32352 26.4486 9.39336 26.614C9.51008 26.0269 9.48849 25.4208 9.33032 24.8435C9.17214 24.2662 8.88172 23.7337 8.48206 23.2881L6.5293 25.2375Z" fill="white"/>
<path d="M16.6133 24.416C16.2988 24.416 15.9913 24.5093 15.7297 24.6841C15.4682 24.8588 15.2644 25.1072 15.144 25.3978C15.0236 25.6885 14.9921 26.0082 15.0535 26.3167C15.1149 26.6253 15.2664 26.9086 15.4888 27.1311C15.7112 27.3535 15.9946 27.5049 16.3031 27.5663C16.6116 27.6277 16.9314 27.5962 17.222 27.4758C17.5126 27.3554 17.761 27.1516 17.9358 26.89C18.1105 26.6285 18.2038 26.321 18.2038 26.0064C18.2033 25.5848 18.0356 25.1805 17.7374 24.8823C17.4393 24.5842 17.035 24.4165 16.6133 24.416Z" fill="white"/>
<path d="M15.732 20.8025C15.4668 20.8516 15.1976 20.8764 14.9278 20.8765C13.8532 20.8766 12.8168 20.4774 12.02 19.7563L10.5791 21.1947L14.2975 24.9065C15.232 23.8968 15.7495 22.5706 15.7459 21.1948C15.7459 21.0633 15.7413 20.9325 15.732 20.8025Z" fill="white"/>
<path d="M8.81396 22.9568C9.25917 23.4549 9.58485 24.0479 9.7662 24.6909C9.94755 25.3338 9.97978 26.0096 9.86045 26.6669C10.6059 26.7203 11.3545 26.6212 12.0603 26.3754C12.7662 26.1296 13.4145 25.7424 13.9655 25.2375L10.2472 21.5259L8.81396 22.9568Z" fill="white"/>
<path d="M20.1242 26.819C20.1104 26.8285 20.0986 26.8406 20.0894 26.8547C20.0803 26.8688 20.074 26.8845 20.071 26.901C20.0679 26.9175 20.0682 26.9345 20.0717 26.9509C20.0752 26.9673 20.0819 26.9828 20.0914 26.9967C20.2118 27.1703 20.396 27.2893 20.6038 27.3274C20.8116 27.3656 21.0261 27.32 21.2003 27.2004L21.94 26.6918C22.0406 26.6223 22.1238 26.5306 22.1833 26.4238L21.3531 25.9741L20.1242 26.819Z" fill="white"/>
<path d="M20.8903 25.7234L19.5488 24.9968L20.3206 26.1152L20.8903 25.7234Z" fill="white"/>
<path d="M24.6333 19.7623L19.2731 20.1085L19.0308 21.2381L24.3902 21.6316C24.5331 21.6417 24.6754 21.6058 24.7965 21.5292L26.1896 20.6412L25.2387 19.9371C25.0644 19.808 24.8495 19.746 24.6333 19.7623Z" fill="white"/>
<path d="M25.6936 9.04165C25.4624 8.60127 25.1131 8.23404 24.6848 7.9812L24.3408 8.72604L25.5767 9.29464L25.6936 9.04165Z" fill="white"/>
<path d="M23.7612 24.6427L18.6945 22.8057L18.4648 23.8767L23.1734 26.4271C23.3769 26.5377 23.6151 26.5656 23.8387 26.505L25.0006 26.1923L24.0775 24.8841C23.9993 24.773 23.8889 24.6887 23.7612 24.6427Z" fill="white"/>
<path d="M24.4376 22.1021C24.4104 22.1021 24.3831 22.1011 24.356 22.0991L18.9317 21.7007L18.7939 22.3429L23.9212 24.2018C23.9711 24.2201 24.0196 24.2418 24.0665 24.2668L26.0006 23.4495L24.6076 22.0888C24.5514 22.0975 24.4945 22.1019 24.4376 22.1021Z" fill="white"/>
<path d="M17.3345 23.5732L18.1157 19.9177L18.8025 20.0644L18.0213 23.72L17.3345 23.5732Z" fill="white"/>
<path d="M19.5506 19.6209L20.482 17.6038C20.3384 17.5575 20.1978 17.5027 20.0607 17.4397C19.9237 17.3764 19.7904 17.3051 19.6616 17.2263L18.5923 19.5419L19.0985 19.6501L19.5506 19.6209Z" fill="white"/>
<path d="M17.0065 19.396L16.9439 19.3053C16.7055 18.9603 16.6033 18.5392 16.6571 18.1233C16.696 17.8222 16.622 17.5173 16.4493 17.2675L10.266 8.30754C10.0722 8.02787 9.77546 7.83635 9.44077 7.77486C9.10609 7.71337 8.76068 7.78691 8.48008 7.97941C8.34135 8.07468 8.22277 8.19638 8.13114 8.33753C8.0395 8.47869 7.97661 8.63653 7.94606 8.80203C7.91552 8.96752 7.91791 9.13742 7.95311 9.30199C7.98831 9.46656 8.05563 9.62257 8.15121 9.76108L12.145 15.548C13.1133 15.8716 13.9824 16.4384 14.669 17.1941C15.3556 17.9499 15.8366 18.8692 16.0661 19.8641C16.3279 19.6206 16.6544 19.4581 17.0065 19.396ZM8.96749 9.34901C8.94187 9.36606 8.91314 9.37791 8.88294 9.38386C8.85274 9.38982 8.82167 9.38977 8.79149 9.38371C8.76131 9.37766 8.73262 9.36572 8.70706 9.34858C8.6815 9.33143 8.65956 9.30942 8.6425 9.2838L8.58916 9.20332C8.5721 9.1777 8.56026 9.14897 8.5543 9.11877C8.54835 9.08857 8.5484 9.0575 8.55445 9.02732C8.56051 8.99714 8.57245 8.96845 8.58959 8.94289C8.60673 8.91733 8.62874 8.89539 8.65436 8.87833C8.67998 8.86128 8.70871 8.84943 8.73891 8.84348C8.76911 8.83752 8.80018 8.83757 8.83036 8.84363C8.86054 8.84968 8.88923 8.86162 8.91479 8.87877C8.94035 8.89591 8.96229 8.91792 8.97935 8.94354L9.03288 9.02402C9.04993 9.04965 9.06176 9.07839 9.0677 9.1086C9.07364 9.1388 9.07357 9.16988 9.0675 9.20006C9.06143 9.23024 9.04947 9.25892 9.03231 9.28448C9.01515 9.31004 8.99312 9.33196 8.96749 9.34901ZM11.4472 13.0743C11.4216 13.0913 11.3928 13.1032 11.3626 13.1091C11.3324 13.1151 11.3014 13.115 11.2712 13.109C11.241 13.1029 11.2123 13.091 11.1867 13.0738C11.1612 13.0567 11.1392 13.0347 11.1222 13.0091L9.11758 9.99757C9.10002 9.97196 9.08772 9.94312 9.0814 9.91271C9.07508 9.88231 9.07486 9.85095 9.08076 9.82046C9.08666 9.78998 9.09856 9.76097 9.11577 9.73512C9.13298 9.70927 9.15516 9.6871 9.18101 9.66989C9.20686 9.65269 9.23587 9.64079 9.26636 9.63489C9.29685 9.629 9.32821 9.62922 9.35861 9.63554C9.38901 9.64187 9.41785 9.65417 9.44346 9.67174C9.46907 9.68931 9.49092 9.71179 9.50777 9.73788L11.5124 12.7493C11.5469 12.8011 11.5593 12.8643 11.5471 12.9253C11.5349 12.9862 11.499 13.0398 11.4473 13.0743H11.4472Z" fill="white"/>
<path d="M16.869 23.4963L17.6548 19.8329C16.969 19.7622 16.3297 20.0587 16.1783 20.5378C16.2022 20.7559 16.2143 20.9752 16.2144 21.1946C16.2151 21.8275 16.1151 22.4565 15.918 23.0579C16.1795 23.4045 16.6113 23.4707 16.869 23.4963Z" fill="white"/>
<path d="M22.3784 11.8584L21.1426 11.2898L20.6689 12.3156L21.9048 12.8842L22.3784 11.8584Z" fill="white"/>
<path d="M8.48187 22.6257L9.9154 21.1948L6.19699 17.4829C5.26243 18.4926 4.74492 19.8188 4.74855 21.1947C4.74855 21.3243 4.75307 21.4531 4.7621 21.5812C5.42074 21.4614 6.09801 21.4932 6.74252 21.6742C7.38704 21.8552 7.98186 22.1806 8.48187 22.6257Z" fill="white"/>
<path d="M4.81494 22.0483C4.98107 23.1173 5.46242 24.1124 6.19738 24.9063L8.15033 22.9568C7.70273 22.5574 7.16845 22.2674 6.58963 22.1098C6.01081 21.9521 5.40328 21.9311 4.81494 22.0483Z" fill="white"/>
<path d="M11.6882 19.425C11.2394 18.9308 10.9112 18.3393 10.7294 17.697C10.5475 17.0547 10.517 16.3789 10.6402 15.7228C10.5094 15.7134 10.3783 15.7087 10.2471 15.7087C8.87056 15.7064 7.54339 16.2215 6.52881 17.1518L10.2471 20.8634L11.6882 19.425Z" fill="white"/>
<path d="M13.9654 17.152C13.1694 16.4213 12.1749 15.9426 11.1073 15.7764C10.9924 16.3622 11.015 16.9668 11.1734 17.5424C11.3319 18.1181 11.6218 18.6491 12.0203 19.0936L13.9654 17.152Z" fill="white"/>
<path d="M15.6788 20.3351C15.5118 19.2682 15.0309 18.2753 14.2974 17.4829L12.3521 19.4246C12.7986 19.823 13.3314 20.1125 13.9085 20.2704C14.4857 20.4284 15.0917 20.4505 15.6788 20.3351Z" fill="white"/>
<path d="M19.3261 14.1052L19.3762 13.9967L19.2798 13.9524C19.2942 14.0038 19.3097 14.0547 19.3261 14.1052Z" fill="white"/>
<path d="M23.0747 15.8318C23.1243 15.8113 23.1738 15.7896 23.2232 15.7666L23.1256 15.7217L23.0747 15.8318Z" fill="white"/>
<path d="M19.1662 12.1404C19.111 12.5525 19.11 12.9701 19.1631 13.3826L19.5728 13.5711L20.0462 12.5453L19.1662 12.1404Z" fill="white"/>
<path d="M21.0083 15.9437C21.4796 16.1036 21.9859 16.1301 22.4713 16.0204L22.6998 15.5256L21.4639 14.957L21.0083 15.9437Z" fill="white"/>
<path d="M19.8021 14.1926L19.5742 14.6862C19.8051 15.1269 20.1543 15.4944 20.5825 15.7476L21.038 14.7612L19.8021 14.1926Z" fill="white"/>
<path d="M23.3218 15.296L23.7309 15.4843C24.0789 15.2561 24.3962 14.984 24.6749 14.6749L23.7954 14.2703L23.3218 15.296Z" fill="white"/>
<path d="M22.1338 13.5056L21.6602 14.5314L22.896 15.1L23.3697 14.0743L22.1338 13.5056Z" fill="white"/>
<path d="M25.0124 6.71558C24.5576 6.50747 24.0629 6.40084 23.5628 6.40311C21.6995 6.40311 19.7134 7.80547 18.6792 10.0453C17.9348 11.6573 17.8124 13.4068 18.3431 14.8453C18.7178 15.8605 19.3794 16.6104 20.2565 17.014C22.4377 18.0176 25.2786 16.5237 26.5897 13.6843C27.334 12.0723 27.4565 10.3228 26.9258 8.8843C26.5511 7.86903 25.8895 7.11908 25.0124 6.71558ZM26.0459 13.4346C25.16 15.353 23.4548 16.553 21.8514 16.553C21.4179 16.5549 20.9893 16.4625 20.5951 16.2821C19.832 15.931 19.2576 15.2818 18.934 14.4049C18.4799 13.1741 18.5851 11.676 19.223 10.2947C20.3476 7.85933 22.793 6.58194 24.6738 7.4473C25.4369 7.79839 26.0113 8.44752 26.3349 9.32446C26.7891 10.5552 26.6837 12.0533 26.0459 13.4346V13.4346Z" fill="white"/>
<path d="M25.8064 9.91626L25.333 10.9421L26.1318 11.3096C26.1656 10.881 26.1386 10.4499 26.0515 10.0289L25.8064 9.91626Z" fill="white"/>
<path d="M24.6626 12.3932L25.7642 12.9C25.9036 12.5439 26.0066 12.1746 26.0717 11.7977L25.1363 11.3674L24.6626 12.3932Z" fill="white"/>
<path d="M23.9922 13.8446L24.9847 14.3012C25.2136 13.9978 25.412 13.6725 25.5768 13.33L24.4659 12.8191L23.9922 13.8446Z" fill="white"/>
<path d="M23.0484 10.407L21.8125 9.83838L21.3389 10.8641L22.5747 11.4328L23.0484 10.407Z" fill="white"/>
<path d="M25.3804 9.7202L24.1445 9.15161L23.6709 10.1774L24.9068 10.746L25.3804 9.7202Z" fill="white"/>
<path d="M19.9985 13.767L21.2344 14.3356L21.708 13.3098L20.4722 12.7412L19.9985 13.767Z" fill="white"/>
<path d="M20.7168 11.0938L19.6072 10.5833C19.4532 10.9306 19.3338 11.2922 19.2505 11.6628L20.2432 12.1195L20.7168 11.0938Z" fill="white"/>
<path d="M24.7105 11.1716L23.4746 10.603L23.001 11.6288L24.2368 12.1974L24.7105 11.1716Z" fill="white"/>
<path d="M24.2588 7.78567C23.9855 7.69055 23.698 7.64234 23.4086 7.64307C23.2025 7.64384 22.9969 7.66619 22.7954 7.70978L22.6792 7.96154L23.9151 8.53014L24.2588 7.78567Z" fill="white"/>
<path d="M24.0401 12.623L22.8042 12.0544L22.3306 13.0802L23.5664 13.6488L24.0401 12.623Z" fill="white"/>
<path d="M21.3867 9.64264L20.4549 9.21411C20.2094 9.50769 19.9943 9.82543 19.813 10.1624L20.9131 10.6687L21.3867 9.64264Z" fill="white"/>
<path d="M22.0568 8.19111L21.8142 8.07959C21.4381 8.28798 21.0929 8.54776 20.7886 8.85143L21.5831 9.21706L22.0568 8.19111Z" fill="white"/>
<path d="M23.2451 9.98157L23.7188 8.9558L22.4829 8.38721L22.0093 9.41297L23.2451 9.98157Z" fill="white"/>
</g>
<defs>
<filter id="filter0_f_2313_1931" x="8.29613" y="41.4814" width="15.4072" height="10.6668" filterUnits="userSpaceOnUse" color-interpolation-filters="sRGB">
<feFlood flood-opacity="0" result="BackgroundImageFix"/>
<feBlend mode="normal" in="SourceGraphic" in2="BackgroundImageFix" result="shape"/>
<feGaussianBlur stdDeviation="1.18519" result="effect1_foregroundBlur_2313_1931"/>
</filter>
<linearGradient id="paint0_linear_2313_1931" x1="15.9999" y1="1.18506" x2="15.9999" y2="46.2221" gradientUnits="userSpaceOnUse">
<stop stop-color="white"/>
<stop offset="1" stop-color="white" stop-opacity="0.5"/>
</linearGradient>
<clipPath id="clip0_2313_1931">
<rect width="32" height="50.963" fill="white"/>
</clipPath>
</defs>
</svg>
