<svg width="32" height="51" viewBox="0 0 32 51" fill="none" xmlns="http://www.w3.org/2000/svg">
<g clip-path="url(#clip0_2313_2011)">
<g filter="url(#filter0_f_2313_2011)">
<ellipse cx="15.9998" cy="46.8148" rx="5.33333" ry="2.96296" fill="black" fill-opacity="0.12"/>
</g>
<mask id="path-2-outside-1_2313_2011" maskUnits="userSpaceOnUse" x="-0.814941" y="-0.814941" width="33" height="49" fill="black">
<rect fill="white" x="-0.814941" y="-0.814941" width="33" height="49"/>
<path fill-rule="evenodd" clip-rule="evenodd" d="M27.8305 24.9184C29.7038 22.4373 30.8147 19.3483 30.8147 15.9999C30.8147 7.81788 24.1819 1.18506 15.9999 1.18506C7.81788 1.18506 1.18506 7.81788 1.18506 15.9999C1.18506 19.3483 2.29594 22.4373 4.16925 24.9184C4.83505 25.8447 5.73515 26.8305 6.73153 27.9218C10.1923 31.712 14.8147 36.7744 14.8147 45.0369C14.8147 45.6915 15.3453 46.2221 15.9999 46.2221C16.6544 46.2221 17.1851 45.6915 17.1851 45.0369C17.1851 36.7744 21.8074 31.712 25.2682 27.9218C26.2646 26.8305 27.1647 25.8448 27.8305 24.9184Z"/>
</mask>
<path fill-rule="evenodd" clip-rule="evenodd" d="M27.8305 24.9184C29.7038 22.4373 30.8147 19.3483 30.8147 15.9999C30.8147 7.81788 24.1819 1.18506 15.9999 1.18506C7.81788 1.18506 1.18506 7.81788 1.18506 15.9999C1.18506 19.3483 2.29594 22.4373 4.16925 24.9184C4.83505 25.8447 5.73515 26.8305 6.73153 27.9218C10.1923 31.712 14.8147 36.7744 14.8147 45.0369C14.8147 45.6915 15.3453 46.2221 15.9999 46.2221C16.6544 46.2221 17.1851 45.6915 17.1851 45.0369C17.1851 36.7744 21.8074 31.712 25.2682 27.9218C26.2646 26.8305 27.1647 25.8448 27.8305 24.9184Z" fill="#2970FF"/>
<path d="M27.8305 24.9184L26.8846 24.2043L26.8762 24.2154L26.8681 24.2267L27.8305 24.9184ZM4.16925 24.9184L5.13165 24.2267L5.12351 24.2154L5.11511 24.2042L4.16925 24.9184ZM6.73153 27.9218L7.60676 27.1226L6.73153 27.9218ZM25.2682 27.9218L24.393 27.1226L25.2682 27.9218ZM28.7763 25.6326C30.7996 22.9529 31.9999 19.6149 31.9999 15.9999H29.6295C29.6295 19.0818 28.608 21.9217 26.8846 24.2043L28.7763 25.6326ZM31.9999 15.9999C31.9999 7.16332 24.8364 -0.0001266 15.9999 -0.0001266V2.37024C23.5273 2.37024 29.6295 8.47244 29.6295 15.9999H31.9999ZM15.9999 -0.0001266C7.16332 -0.0001266 -0.0001266 7.16332 -0.0001266 15.9999H2.37024C2.37024 8.47244 8.47244 2.37024 15.9999 2.37024V-0.0001266ZM-0.0001266 15.9999C-0.0001266 19.6148 1.20015 22.9529 3.2234 25.6326L5.11511 24.2042C3.39172 21.9217 2.37024 19.0818 2.37024 15.9999H-0.0001266ZM3.20685 25.6101C3.92156 26.6045 4.87434 27.6455 5.8563 28.7209L7.60676 27.1226C6.59596 26.0156 5.74853 25.085 5.13165 24.2267L3.20685 25.6101ZM5.8563 28.7209C9.32199 32.5165 13.6295 37.2746 13.6295 45.0369H15.9999C15.9999 36.2742 11.0627 30.9075 7.60676 27.1226L5.8563 28.7209ZM13.6295 45.0369C13.6295 46.346 14.6908 47.4073 15.9999 47.4073V45.0369L15.9999 45.0369H13.6295ZM15.9999 47.4073C17.309 47.4073 18.3702 46.346 18.3702 45.0369H15.9999L15.9999 45.0369V47.4073ZM18.3702 45.0369C18.3702 37.2746 22.6778 32.5165 26.1434 28.7209L24.393 27.1226C20.9371 30.9075 15.9999 36.2742 15.9999 45.0369H18.3702ZM26.1434 28.7209C27.1254 27.6455 28.0782 26.6045 28.7929 25.6101L26.8681 24.2267C26.2512 25.085 25.4038 26.0156 24.393 27.1226L26.1434 28.7209Z" fill="url(#paint0_linear_2313_2011)" mask="url(#path-2-outside-1_2313_2011)"/>
<path d="M6.32585 14.8197C6.58767 12.6574 7.56661 10.6453 9.10628 9.10481C10.646 7.56428 12.6575 6.58423 14.8196 6.32122C14.8708 6.31511 14.9227 6.31962 14.9721 6.33448C15.0215 6.34933 15.0672 6.37421 15.1066 6.40755C15.1459 6.4409 15.1779 6.48199 15.2007 6.52827C15.2234 6.57456 15.2363 6.62503 15.2387 6.67654C15.285 7.81286 15.0955 8.94647 14.682 10.0059C14.2684 11.0653 13.6399 12.0276 12.836 12.832C12.0321 13.6364 11.0702 14.2656 10.0111 14.6798C8.95194 15.094 7.81846 15.2843 6.6821 15.2387C6.63051 15.2365 6.57994 15.2237 6.53355 15.201C6.48716 15.1783 6.44595 15.1463 6.4125 15.107C6.37906 15.0676 6.3541 15.0218 6.33919 14.9724C6.32428 14.9229 6.31974 14.8709 6.32585 14.8197ZM25.314 16.7603C25.209 16.7603 25.1049 16.7537 24.9999 16.7537C23.8894 16.7523 22.7901 16.9755 21.7681 17.4099C20.7461 17.8443 19.8225 18.4809 19.0528 19.2814C18.2832 20.082 17.6834 21.0299 17.2896 22.0683C16.8958 23.1066 16.716 24.2138 16.7612 25.3234C16.7635 25.3749 16.7764 25.4254 16.7992 25.4717C16.8219 25.518 16.8539 25.559 16.8933 25.5924C16.9326 25.6257 16.9784 25.6506 17.0277 25.6655C17.0771 25.6803 17.129 25.6848 17.1802 25.6787C19.3425 25.4157 21.3541 24.4355 22.8938 22.8948C24.4335 21.3541 25.4124 19.3418 25.674 17.1793C25.6801 17.1278 25.6755 17.0755 25.6603 17.0258C25.6452 16.9761 25.6199 16.9301 25.5861 16.8907C25.5522 16.8513 25.5105 16.8194 25.4637 16.7969C25.4169 16.7745 25.3659 16.762 25.314 16.7603ZM18.1055 18.1056C19.0089 17.1974 20.0833 16.4774 21.2667 15.9873C22.4501 15.4971 23.719 15.2465 24.9999 15.25C25.0937 15.25 25.193 15.25 25.2896 15.25C25.3434 15.2519 25.3969 15.2422 25.4466 15.2216C25.4963 15.201 25.541 15.17 25.5776 15.1306C25.6143 15.0912 25.642 15.0444 25.659 14.9933C25.6759 14.9423 25.6817 14.8881 25.6759 14.8347C25.4174 12.6645 24.4367 10.6443 22.8914 9.09884C21.3461 7.55338 19.326 6.57244 17.1559 6.31372C17.1024 6.3079 17.0483 6.31366 16.9972 6.33061C16.9461 6.34755 16.8993 6.37529 16.8599 6.41192C16.8205 6.44856 16.7895 6.49325 16.7689 6.54295C16.7483 6.59265 16.7386 6.64621 16.7405 6.69997C16.7832 8.02948 16.5526 9.35359 16.063 10.5904C15.5734 11.8272 14.8353 12.9505 13.8943 13.8906C12.9913 14.7994 11.917 15.5201 10.7335 16.0109C9.55012 16.5018 8.28108 16.7529 6.99991 16.75C6.90616 16.75 6.80679 16.75 6.71023 16.75C6.65646 16.748 6.60291 16.7577 6.55321 16.7783C6.50351 16.7989 6.45882 16.83 6.42218 16.8693C6.38554 16.9087 6.35781 16.9556 6.34086 17.0066C6.32392 17.0577 6.31816 17.1118 6.32398 17.1653C6.58245 19.3354 7.56317 21.3556 9.10846 22.9011C10.6538 24.4466 12.6738 25.4275 14.844 25.6862C14.8975 25.692 14.9516 25.6863 15.0026 25.6693C15.0537 25.6524 15.1005 25.6247 15.1399 25.588C15.1793 25.5514 15.2104 25.5067 15.231 25.457C15.2516 25.4073 15.2612 25.3537 15.2593 25.3C15.2161 23.9698 15.4465 22.645 15.9361 21.4075C16.4256 20.17 17.164 19.0462 18.1055 18.1056Z" fill="white"/>
</g>
<defs>
<filter id="filter0_f_2313_2011" x="8.29613" y="41.4814" width="15.4072" height="10.6668" filterUnits="userSpaceOnUse" color-interpolation-filters="sRGB">
<feFlood flood-opacity="0" result="BackgroundImageFix"/>
<feBlend mode="normal" in="SourceGraphic" in2="BackgroundImageFix" result="shape"/>
<feGaussianBlur stdDeviation="1.18519" result="effect1_foregroundBlur_2313_2011"/>
</filter>
<linearGradient id="paint0_linear_2313_2011" x1="15.9999" y1="1.18506" x2="15.9999" y2="46.2221" gradientUnits="userSpaceOnUse">
<stop stop-color="white"/>
<stop offset="1" stop-color="white" stop-opacity="0.5"/>
</linearGradient>
<clipPath id="clip0_2313_2011">
<rect width="32" height="50.963" fill="white"/>
</clipPath>
</defs>
</svg>
