<svg width="20" height="20" viewBox="0 0 20 20" fill="none" xmlns="http://www.w3.org/2000/svg">
<path d="M5.77384 2.44141C4.36718 2.44141 2.49219 4.3164 2.49219 5.72306C2.49219 7.53473 4.36719 10.8789 6.24219 12.7539C6.44385 12.9556 6.97802 13.4897 7.17969 13.6914C9.05469 15.5664 12.3989 17.4414 14.2105 17.4414C15.6172 17.4414 17.4922 15.5664 17.4922 14.1597C17.4922 12.7539 15.6172 10.8789 14.2105 10.8789C13.7422 10.8789 12.0464 11.8489 11.8672 11.8164C10.3722 11.5464 8.42969 9.55557 8.11719 8.06641C8.07385 7.85891 9.05469 6.1914 9.05469 5.72306C9.05469 4.3164 7.17968 2.44141 5.77384 2.44141Z" fill="#6C737F"/>
</svg>
