<svg width="20" height="20" viewBox="0 0 20 20" fill="none" xmlns="http://www.w3.org/2000/svg">
<path d="M10.012 1.66577C5.40971 1.66577 1.67871 5.39661 1.67871 9.99911C1.67871 14.6016 5.40971 18.3324 10.012 18.3324C14.6144 18.3324 18.3454 14.6016 18.3454 9.99911C18.3454 5.39661 14.6144 1.66577 10.012 1.66577ZM10.012 4.9991C10.4723 4.9991 10.8454 5.37244 10.8454 5.83244V9.63411L13.111 11.8999C13.4365 12.2258 13.4365 12.7724 13.111 13.0983C12.7855 13.4233 12.2385 13.4233 11.913 13.0983L9.41304 10.5983C9.25679 10.4416 9.17871 10.2199 9.17871 9.99911V5.83244C9.17871 5.37244 9.55179 4.9991 10.012 4.9991Z" fill="#6C737F"/>
</svg>
