<svg width="50" height="50" viewBox="0 0 50 50" fill="none" xmlns="http://www.w3.org/2000/svg">
<path opacity="0.16" d="M18.3921 23.7259C19.015 21.4015 21.4043 19.0122 23.7288 18.3892L38.2204 14.5056C40.5449 13.8827 41.9242 15.262 41.3013 17.5865L37.4177 32.0781C36.7948 34.4026 34.4055 36.7919 32.081 37.4148L17.5894 41.2985C15.2649 41.9214 13.8856 40.542 14.5085 38.2176L18.3921 23.7259Z" fill="#1D9A6C"/>
<path d="M12.5825 17.9162C13.2055 15.5917 15.5948 13.2024 17.9192 12.5795L32.4109 8.69586C34.7353 8.07293 36.1147 9.45229 35.4917 11.7767L31.6081 26.2684C30.9852 28.5928 28.5959 30.9822 26.2714 31.6051L11.7798 35.4887C9.45534 36.1116 8.07598 34.7323 8.69891 32.4078L12.5825 17.9162Z" fill="#1D9A6C"/>
</svg>
