<svg width="40" height="40" viewBox="0 0 40 40" fill="none" xmlns="http://www.w3.org/2000/svg">
<rect x="0.5" y="0.5" width="39" height="39" rx="7.5" stroke="#E5E7EB"/>
<g clip-path="url(#clip0_2677_3388)">
<path opacity="0.16" d="M15.3745 19.0828C15.8106 17.4092 17.4831 15.6888 19.1102 15.2403L29.2544 12.4441C30.8815 11.9956 31.847 12.9888 31.411 14.6624L28.6924 25.0964C28.2564 26.77 26.5839 28.4903 24.9568 28.9388L14.8126 31.735C13.1855 32.1835 12.2199 31.1903 12.656 29.5167L15.3745 19.0828Z" fill="white"/>
<path d="M11.3076 14.8996C11.7437 13.226 13.4162 11.5057 15.0433 11.0572L25.1875 8.26103C26.8146 7.81252 27.7801 8.80566 27.3441 10.4793L24.6255 20.9133C24.1895 22.5869 22.517 24.3072 20.8899 24.7557L10.7457 27.5519C9.11859 28.0004 8.15304 27.0072 8.58909 25.3336L11.3076 14.8996Z" fill="white"/>
</g>
<defs>
<clipPath id="clip0_2677_3388">
<rect width="35" height="35" fill="white" transform="translate(2.5 2.5)"/>
</clipPath>
</defs>
</svg>
